<svg xmlns="http://www.w3.org/2000/svg" xmlns:dc="http://purl.org/dc/elements/1.1/" xmlns:ns2="http://creativecommons.org/ns#" xmlns:rdf="http://www.w3.org/1999/02/22-rdf-syntax-ns#" xmlns:xlink="http://www.w3.org/1999/xlink" width="218.0" height="277.0" viewBox="0.0 0.0 218.0 276.5">
<g id="graph0" class="graph" transform="scale(1.0 1.0) rotate(0) translate(4 272.5)">
<title>G</title>
<polygon fill="white" stroke="none" points="-4,4 -4,-272.5 214,-272.5 214,4 -4,4" />

<g id="node1" class="node">
<title>node2</title>
<svg width="126px" height="71px" viewBox="0 0 167.630625 95.275301" version="1.1" preserveAspectRatio="xMinYMin meet" x="80" y="-153">
 <metadata>
  <rdf:RDF>
   <ns2:Work>
    <dc:type rdf:resource="http://purl.org/dc/dcmitype/StillImage" />
    <dc:date>2024-04-02T20:55:58.072227</dc:date>
    <dc:format>image/svg+xml</dc:format>
    <dc:creator>
     <ns2:Agent>
      <dc:title>Matplotlib v3.8.2, https://matplotlib.org/</dc:title>
     </ns2:Agent>
    </dc:creator>
   </ns2:Work>
  </rdf:RDF>
 </metadata>
 <defs>
  <style type="text/css">*{stroke-linejoin: round; stroke-linecap: butt}</style>
 </defs>
 <g id="figure_1">
  <g id="patch_1">
   <path d="M 0 95.275301  L 167.630625 95.275301  L 167.630625 0  L 0 0  z " style="fill: #ffffff" />
  </g>
  <g id="axes_1">
   <g id="patch_2">
    <path d="M 20.34625 61.484676  L 159.84625 61.484676  L 159.84625 0.500676  L 20.34625 0.500676  z " style="fill: #ffffff" />
   </g>
   <g id="PathCollection_1">
    <defs>
     <path id="m5f53868758" d="M 0 1.118034  C 0.296506 1.118034 0.580908 1.000231 0.790569 0.790569  C 1.000231 0.580908 1.118034 0.296506 1.118034 0  C 1.118034 -0.296506 1.000231 -0.580908 0.790569 -0.790569  C 0.580908 -1.000231 0.296506 -1.118034 0 -1.118034  C -0.296506 -1.118034 -0.580908 -1.000231 -0.790569 -0.790569  C -1.000231 -0.580908 -1.118034 -0.296506 -1.118034 0  C -1.118034 0.296506 -1.000231 0.580908 -0.790569 0.790569  C -0.580908 1.000231 -0.296506 1.118034 0 1.118034  z " style="stroke: #4575b4; stroke-opacity: 0.7; stroke-width: 0.3" />
    </defs>
    <g clip-path="url(#p53001117d4)">
     <use xlink:href="#m5f53868758" x="74.000096" y="23.966884" style="fill: #4575b4; fill-opacity: 0.7; stroke: #4575b4; stroke-opacity: 0.7; stroke-width: 0.3" />
     <use xlink:href="#m5f53868758" x="84.730865" y="29.242823" style="fill: #4575b4; fill-opacity: 0.7; stroke: #4575b4; stroke-opacity: 0.7; stroke-width: 0.3" />
     <use xlink:href="#m5f53868758" x="95.461635" y="25.72553" style="fill: #4575b4; fill-opacity: 0.7; stroke: #4575b4; stroke-opacity: 0.7; stroke-width: 0.3" />
     <use xlink:href="#m5f53868758" x="106.192404" y="22.794453" style="fill: #4575b4; fill-opacity: 0.7; stroke: #4575b4; stroke-opacity: 0.7; stroke-width: 0.3" />
     <use xlink:href="#m5f53868758" x="116.923173" y="12.828789" style="fill: #4575b4; fill-opacity: 0.7; stroke: #4575b4; stroke-opacity: 0.7; stroke-width: 0.3" />
     <use xlink:href="#m5f53868758" x="127.653942" y="6.966634" style="fill: #4575b4; fill-opacity: 0.7; stroke: #4575b4; stroke-opacity: 0.7; stroke-width: 0.3" />
     <use xlink:href="#m5f53868758" x="138.384712" y="8.139065" style="fill: #4575b4; fill-opacity: 0.7; stroke: #4575b4; stroke-opacity: 0.7; stroke-width: 0.3" />
     <use xlink:href="#m5f53868758" x="149.115481" y="4.035556" style="fill: #4575b4; fill-opacity: 0.7; stroke: #4575b4; stroke-opacity: 0.7; stroke-width: 0.3" />
     <use xlink:href="#m5f53868758" x="159.84625" y="2.276909" style="fill: #4575b4; fill-opacity: 0.7; stroke: #4575b4; stroke-opacity: 0.7; stroke-width: 0.3" />
    </g>
   </g>
   <g id="patch_3">
    <path d="M 111.557788 61.484676  L 109.046788 67.583076  L 114.068788 67.583076  z " style="fill: #444443" />
   </g>
   <g id="matplotlib.axis_1">
    <g id="xtick_1">
     <g id="line2d_1">
      <defs>
       <path id="mb48c9e30a1" d="M 0 0  L 0 3.5  " style="stroke: #000000; stroke-width: 0.3" />
      </defs>
      <g>
       <use xlink:href="#mb48c9e30a1" x="20.34625" y="61.484676" style="stroke: #000000; stroke-width: 0.3" />
      </g>
     </g>
     <g id="text_1">
      
      <g style="fill: #444443" transform="translate(12.561875 78.710926) scale(0.08 -0.08)">
       <defs>
        <path id="ArialMT-31" d="M 2384 0  L 1822 0  L 1822 3584  Q 1619 3391 1289 3197  Q 959 3003 697 2906  L 697 3450  Q 1169 3672 1522 3987  Q 1875 4303 2022 4600  L 2384 4600  L 2384 0  z " transform="scale(0.015625)" />
        <path id="ArialMT-2e" d="M 581 0  L 581 641  L 1222 641  L 1222 0  L 581 0  z " transform="scale(0.015625)" />
        <path id="ArialMT-30" d="M 266 2259  Q 266 3072 433 3567  Q 600 4063 929 4331  Q 1259 4600 1759 4600  Q 2128 4600 2406 4451  Q 2684 4303 2865 4023  Q 3047 3744 3150 3342  Q 3253 2941 3253 2259  Q 3253 1453 3087 958  Q 2922 463 2592 192  Q 2263 -78 1759 -78  Q 1097 -78 719 397  Q 266 969 266 2259  z M 844 2259  Q 844 1131 1108 757  Q 1372 384 1759 384  Q 2147 384 2411 759  Q 2675 1134 2675 2259  Q 2675 3391 2411 3762  Q 2147 4134 1753 4134  Q 1366 4134 1134 3806  Q 844 3388 844 2259  z " transform="scale(0.015625)" />
       </defs>
       <use xlink:href="#ArialMT-31" />
       <use xlink:href="#ArialMT-2e" x="55.615234" />
       <use xlink:href="#ArialMT-30" x="83.398438" />
       <use xlink:href="#ArialMT-30" x="139.013672" />
      </g>
     </g>
    </g>
    <g id="xtick_2">
     <g id="line2d_2">
      <g>
       <use xlink:href="#mb48c9e30a1" x="111.557788" y="61.484676" style="stroke: #000000; stroke-width: 0.3" />
      </g>
     </g>
     <g id="text_2">
      
      <g style="fill: #444443" transform="translate(103.773413 78.710926) scale(0.08 -0.08)">
       <defs>
        <path id="ArialMT-35" d="M 266 1200  L 856 1250  Q 922 819 1161 601  Q 1400 384 1738 384  Q 2144 384 2425 690  Q 2706 997 2706 1503  Q 2706 1984 2436 2262  Q 2166 2541 1728 2541  Q 1456 2541 1237 2417  Q 1019 2294 894 2097  L 366 2166  L 809 4519  L 3088 4519  L 3088 3981  L 1259 3981  L 1013 2750  Q 1425 3038 1878 3038  Q 2478 3038 2890 2622  Q 3303 2206 3303 1553  Q 3303 931 2941 478  Q 2500 -78 1738 -78  Q 1113 -78 717 272  Q 322 622 266 1200  z " transform="scale(0.015625)" />
        <path id="ArialMT-32" d="M 3222 541  L 3222 0  L 194 0  Q 188 203 259 391  Q 375 700 629 1000  Q 884 1300 1366 1694  Q 2113 2306 2375 2664  Q 2638 3022 2638 3341  Q 2638 3675 2398 3904  Q 2159 4134 1775 4134  Q 1369 4134 1125 3890  Q 881 3647 878 3216  L 300 3275  Q 359 3922 746 4261  Q 1134 4600 1788 4600  Q 2447 4600 2831 4234  Q 3216 3869 3216 3328  Q 3216 3053 3103 2787  Q 2991 2522 2730 2228  Q 2469 1934 1863 1422  Q 1356 997 1212 845  Q 1069 694 975 541  L 3222 541  z " transform="scale(0.015625)" />
       </defs>
       <use xlink:href="#ArialMT-35" />
       <use xlink:href="#ArialMT-2e" x="55.615234" />
       <use xlink:href="#ArialMT-32" x="83.398438" />
       <use xlink:href="#ArialMT-35" x="139.013672" />
      </g>
     </g>
    </g>
    <g id="xtick_3">
     <g id="line2d_3">
      <g>
       <use xlink:href="#mb48c9e30a1" x="159.84625" y="61.484676" style="stroke: #000000; stroke-width: 0.3" />
      </g>
     </g>
     <g id="text_3">
      
      <g style="fill: #444443" transform="translate(152.061875 78.710926) scale(0.08 -0.08)">
       <defs>
        <path id="ArialMT-37" d="M 303 3981  L 303 4522  L 3269 4522  L 3269 4084  Q 2831 3619 2401 2847  Q 1972 2075 1738 1259  Q 1569 684 1522 0  L 944 0  Q 953 541 1156 1306  Q 1359 2072 1739 2783  Q 2119 3494 2547 3981  L 303 3981  z " transform="scale(0.015625)" />
       </defs>
       <use xlink:href="#ArialMT-37" />
       <use xlink:href="#ArialMT-2e" x="55.615234" />
       <use xlink:href="#ArialMT-35" x="83.398438" />
       <use xlink:href="#ArialMT-30" x="139.013672" />
      </g>
     </g>
    </g>
    <g id="text_4">
     
     <g style="fill: #444443" transform="translate(44.954687 92.890301) scale(0.12 -0.12)">
      <defs>
       <path id="ArialMT-59" d="M 1784 0  L 1784 1941  L 19 4581  L 756 4581  L 1659 3200  Q 1909 2813 2125 2425  Q 2331 2784 2625 3234  L 3513 4581  L 4219 4581  L 2391 1941  L 2391 0  L 1784 0  z " transform="scale(0.015625)" />
       <path id="ArialMT-65" d="M 2694 1069  L 3275 997  Q 3138 488 2766 206  Q 2394 -75 1816 -75  Q 1088 -75 661 373  Q 234 822 234 1631  Q 234 2469 665 2931  Q 1097 3394 1784 3394  Q 2450 3394 2872 2941  Q 3294 2488 3294 1666  Q 3294 1616 3291 1516  L 816 1516  Q 847 969 1125 678  Q 1403 388 1819 388  Q 2128 388 2347 550  Q 2566 713 2694 1069  z M 847 1978  L 2700 1978  Q 2663 2397 2488 2606  Q 2219 2931 1791 2931  Q 1403 2931 1139 2672  Q 875 2413 847 1978  z " transform="scale(0.015625)" />
       <path id="ArialMT-61" d="M 2588 409  Q 2275 144 1986 34  Q 1697 -75 1366 -75  Q 819 -75 525 192  Q 231 459 231 875  Q 231 1119 342 1320  Q 453 1522 633 1644  Q 813 1766 1038 1828  Q 1203 1872 1538 1913  Q 2219 1994 2541 2106  Q 2544 2222 2544 2253  Q 2544 2597 2384 2738  Q 2169 2928 1744 2928  Q 1347 2928 1158 2789  Q 969 2650 878 2297  L 328 2372  Q 403 2725 575 2942  Q 747 3159 1072 3276  Q 1397 3394 1825 3394  Q 2250 3394 2515 3294  Q 2781 3194 2906 3042  Q 3031 2891 3081 2659  Q 3109 2516 3109 2141  L 3109 1391  Q 3109 606 3145 398  Q 3181 191 3288 0  L 2700 0  Q 2613 175 2588 409  z M 2541 1666  Q 2234 1541 1622 1453  Q 1275 1403 1131 1340  Q 988 1278 909 1158  Q 831 1038 831 891  Q 831 666 1001 516  Q 1172 366 1500 366  Q 1825 366 2078 508  Q 2331 650 2450 897  Q 2541 1088 2541 1459  L 2541 1666  z " transform="scale(0.015625)" />
       <path id="ArialMT-72" d="M 416 0  L 416 3319  L 922 3319  L 922 2816  Q 1116 3169 1280 3281  Q 1444 3394 1641 3394  Q 1925 3394 2219 3213  L 2025 2691  Q 1819 2813 1613 2813  Q 1428 2813 1281 2702  Q 1134 2591 1072 2394  Q 978 2094 978 1738  L 978 0  L 416 0  z " transform="scale(0.015625)" />
       <path id="ArialMT-73" d="M 197 991  L 753 1078  Q 800 744 1014 566  Q 1228 388 1613 388  Q 2000 388 2187 545  Q 2375 703 2375 916  Q 2375 1106 2209 1216  Q 2094 1291 1634 1406  Q 1016 1563 777 1677  Q 538 1791 414 1992  Q 291 2194 291 2438  Q 291 2659 392 2848  Q 494 3038 669 3163  Q 800 3259 1026 3326  Q 1253 3394 1513 3394  Q 1903 3394 2198 3281  Q 2494 3169 2634 2976  Q 2775 2784 2828 2463  L 2278 2388  Q 2241 2644 2061 2787  Q 1881 2931 1553 2931  Q 1166 2931 1000 2803  Q 834 2675 834 2503  Q 834 2394 903 2306  Q 972 2216 1119 2156  Q 1203 2125 1616 2013  Q 2213 1853 2448 1751  Q 2684 1650 2818 1456  Q 2953 1263 2953 975  Q 2953 694 2789 445  Q 2625 197 2315 61  Q 2006 -75 1616 -75  Q 969 -75 630 194  Q 291 463 197 991  z " transform="scale(0.015625)" />
       <path id="ArialMT-45" d="M 506 0  L 506 4581  L 3819 4581  L 3819 4041  L 1113 4041  L 1113 2638  L 3647 2638  L 3647 2100  L 1113 2100  L 1113 541  L 3925 541  L 3925 0  L 506 0  z " transform="scale(0.015625)" />
       <path id="ArialMT-78" d="M 47 0  L 1259 1725  L 138 3319  L 841 3319  L 1350 2541  Q 1494 2319 1581 2169  Q 1719 2375 1834 2534  L 2394 3319  L 3066 3319  L 1919 1756  L 3153 0  L 2463 0  L 1781 1031  L 1600 1309  L 728 0  L 47 0  z " transform="scale(0.015625)" />
       <path id="ArialMT-70" d="M 422 -1272  L 422 3319  L 934 3319  L 934 2888  Q 1116 3141 1344 3267  Q 1572 3394 1897 3394  Q 2322 3394 2647 3175  Q 2972 2956 3137 2557  Q 3303 2159 3303 1684  Q 3303 1175 3120 767  Q 2938 359 2589 142  Q 2241 -75 1856 -75  Q 1575 -75 1351 44  Q 1128 163 984 344  L 984 -1272  L 422 -1272  z M 931 1641  Q 931 1000 1190 694  Q 1450 388 1819 388  Q 2194 388 2461 705  Q 2728 1022 2728 1688  Q 2728 2322 2467 2637  Q 2206 2953 1844 2953  Q 1484 2953 1207 2617  Q 931 2281 931 1641  z " transform="scale(0.015625)" />
       <path id="ArialMT-69" d="M 425 3934  L 425 4581  L 988 4581  L 988 3934  L 425 3934  z M 425 0  L 425 3319  L 988 3319  L 988 0  L 425 0  z " transform="scale(0.015625)" />
       <path id="ArialMT-6e" d="M 422 0  L 422 3319  L 928 3319  L 928 2847  Q 1294 3394 1984 3394  Q 2284 3394 2536 3286  Q 2788 3178 2913 3003  Q 3038 2828 3088 2588  Q 3119 2431 3119 2041  L 3119 0  L 2556 0  L 2556 2019  Q 2556 2363 2490 2533  Q 2425 2703 2258 2804  Q 2091 2906 1866 2906  Q 1506 2906 1245 2678  Q 984 2450 984 1813  L 984 0  L 422 0  z " transform="scale(0.015625)" />
       <path id="ArialMT-63" d="M 2588 1216  L 3141 1144  Q 3050 572 2676 248  Q 2303 -75 1759 -75  Q 1078 -75 664 370  Q 250 816 250 1647  Q 250 2184 428 2587  Q 606 2991 970 3192  Q 1334 3394 1763 3394  Q 2303 3394 2647 3120  Q 2991 2847 3088 2344  L 2541 2259  Q 2463 2594 2264 2762  Q 2066 2931 1784 2931  Q 1359 2931 1093 2626  Q 828 2322 828 1663  Q 828 994 1084 691  Q 1341 388 1753 388  Q 2084 388 2306 591  Q 2528 794 2588 1216  z " transform="scale(0.015625)" />
      </defs>
      <use xlink:href="#ArialMT-59" />
      <use xlink:href="#ArialMT-65" x="57.574219" />
      <use xlink:href="#ArialMT-61" x="113.189453" />
      <use xlink:href="#ArialMT-72" x="168.804688" />
      <use xlink:href="#ArialMT-73" x="202.105469" />
      <use xlink:href="#ArialMT-45" x="252.105469" />
      <use xlink:href="#ArialMT-78" x="318.804688" />
      <use xlink:href="#ArialMT-70" x="368.804688" />
      <use xlink:href="#ArialMT-65" x="424.419922" />
      <use xlink:href="#ArialMT-72" x="480.035156" />
      <use xlink:href="#ArialMT-69" x="513.335938" />
      <use xlink:href="#ArialMT-65" x="535.552734" />
      <use xlink:href="#ArialMT-6e" x="591.167969" />
      <use xlink:href="#ArialMT-63" x="646.783203" />
      <use xlink:href="#ArialMT-65" x="696.783203" />
     </g>
    </g>
   </g>
   <g id="matplotlib.axis_2">
    <g id="ytick_1">
     <g id="line2d_4">
      <defs>
       <path id="mbed3e3de23" d="M 0 0  L -3.5 0  " style="stroke: #000000; stroke-width: 0.3" />
      </defs>
      <g>
       <use xlink:href="#mbed3e3de23" x="20.34625" y="61.484676" style="stroke: #000000; stroke-width: 0.3" />
      </g>
     </g>
     <g id="text_5">
      
      <g style="fill: #444443" transform="translate(8.8975 64.347801) scale(0.08 -0.08)">
       <use xlink:href="#ArialMT-30" />
      </g>
     </g>
    </g>
    <g id="ytick_2">
     <g id="line2d_5">
      <g>
       <use xlink:href="#mbed3e3de23" x="20.34625" y="32.173901" style="stroke: #000000; stroke-width: 0.3" />
      </g>
     </g>
     <g id="text_6">
      
      <g style="fill: #444443" transform="translate(4.44875 35.037026) scale(0.08 -0.08)">
       <use xlink:href="#ArialMT-35" />
       <use xlink:href="#ArialMT-30" x="55.615234" />
      </g>
     </g>
    </g>
    <g id="ytick_3">
     <g id="line2d_6">
      <g>
       <use xlink:href="#mbed3e3de23" x="20.34625" y="2.863125" style="stroke: #000000; stroke-width: 0.3" />
      </g>
     </g>
     <g id="text_7">
      
      <g style="fill: #444443" transform="translate(-0 5.72625) scale(0.08 -0.08)">
       <use xlink:href="#ArialMT-31" />
       <use xlink:href="#ArialMT-30" x="55.615234" />
       <use xlink:href="#ArialMT-30" x="111.230469" />
      </g>
     </g>
    </g>
   </g>
   <g id="line2d_7">
    <path d="M 20.34625 25.432422  L 111.557788 25.432422  " clip-path="url(#p53001117d4)" style="fill: none; stroke-dasharray: 3.7,1.6; stroke-dashoffset: 0; stroke: #444443" />
   </g>
   <g id="line2d_8">
    <path d="M 111.557788 61.484676  L 111.557788 0.500676  " clip-path="url(#p53001117d4)" style="fill: none; stroke-dasharray: 3.7,1.6; stroke-dashoffset: 0; stroke: #444443" />
   </g>
   <g id="line2d_9">
    <path d="M 111.557788 6.849391  L 159.84625 6.849391  " clip-path="url(#p53001117d4)" style="fill: none; stroke-dasharray: 3.7,1.6; stroke-dashoffset: 0; stroke: #444443" />
   </g>
   <g id="patch_4">
    <path d="M 20.34625 61.484676  L 20.34625 0.500676  " style="fill: none; stroke: #444443; stroke-width: 0.3; stroke-linejoin: miter; stroke-linecap: square" />
   </g>
   <g id="patch_5">
    <path d="M 20.34625 61.484676  L 159.84625 61.484676  " style="fill: none; stroke: #444443; stroke-width: 0.3; stroke-linejoin: miter; stroke-linecap: square" />
   </g>
  </g>
 </g>
 <defs>
  <clipPath id="p53001117d4">
   <rect x="20.34625" y="0.500676" width="139.5" height="60.984" />
  </clipPath>
 </defs>
</svg></g>

<g id="node3" class="node">
<title>leaf3</title>
<polygon fill="none" stroke="#444443" stroke-width="0" points="127.5,-61 62.5,-61 62.5,0 127.5,0 127.5,-61" />
<svg width="57px" height="53px" viewBox="0 0 75.63 71.089856" version="1.1" preserveAspectRatio="xMinYMin meet" x="66.5" y="-57">
 <metadata>
  <rdf:RDF>
   <ns2:Work>
    <dc:type rdf:resource="http://purl.org/dc/dcmitype/StillImage" />
    <dc:date>2024-04-02T20:55:58.303290</dc:date>
    <dc:format>image/svg+xml</dc:format>
    <dc:creator>
     <ns2:Agent>
      <dc:title>Matplotlib v3.8.2, https://matplotlib.org/</dc:title>
     </ns2:Agent>
    </dc:creator>
   </ns2:Work>
  </rdf:RDF>
 </metadata>
 <defs>
  <style type="text/css">*{stroke-linejoin: round; stroke-linecap: butt}</style>
 </defs>
 <g id="figure_1">
  <g id="patch_1">
   <path d="M 0 71.089856  L 75.63 71.089856  L 75.63 -0  L 0 -0  z " style="fill: #ffffff" />
  </g>
  <g id="axes_1">
   <g id="patch_2">
    <path d="M 20.34625 45.496981  L 62.19625 45.496981  L 62.19625 1.144981  L 20.34625 1.144981  z " style="fill: #ffffff" />
   </g>
   <g id="PathCollection_1">
    <defs>
     <path id="m36fa12bccd" d="M 0 1.118034  C 0.296506 1.118034 0.580908 1.000231 0.790569 0.790569  C 1.000231 0.580908 1.118034 0.296506 1.118034 0  C 1.118034 -0.296506 1.000231 -0.580908 0.790569 -0.790569  C 0.580908 -1.000231 0.296506 -1.118034 0 -1.118034  C -0.296506 -1.118034 -0.580908 -1.000231 -0.790569 -0.790569  C -1.000231 -0.580908 -1.118034 -0.296506 -1.118034 0  C -1.118034 0.296506 -1.000231 0.580908 -0.790569 0.790569  C -0.580908 1.000231 -0.296506 1.118034 0 1.118034  z " style="stroke: #4575b4; stroke-opacity: 0.7; stroke-width: 0.3" />
    </defs>
    <g clip-path="url(#pf48e847aad)">
     <use xlink:href="#m36fa12bccd" x="42.830147" y="18.211313" style="fill: #4575b4; fill-opacity: 0.7; stroke: #4575b4; stroke-opacity: 0.7; stroke-width: 0.3" />
     <use xlink:href="#m36fa12bccd" x="41.894685" y="22.04836" style="fill: #4575b4; fill-opacity: 0.7; stroke: #4575b4; stroke-opacity: 0.7; stroke-width: 0.3" />
     <use xlink:href="#m36fa12bccd" x="46.236385" y="19.490329" style="fill: #4575b4; fill-opacity: 0.7; stroke: #4575b4; stroke-opacity: 0.7; stroke-width: 0.3" />
     <use xlink:href="#m36fa12bccd" x="41.064587" y="17.358636" style="fill: #4575b4; fill-opacity: 0.7; stroke: #4575b4; stroke-opacity: 0.7; stroke-width: 0.3" />
    </g>
   </g>
   <g id="matplotlib.axis_1" />
   <g id="matplotlib.axis_2">
    <g id="ytick_1">
     <g id="line2d_1">
      <defs>
       <path id="ma417f57d80" d="M 0 0  L -3.5 0  " style="stroke: #000000; stroke-width: 0.3" />
      </defs>
      <g>
       <use xlink:href="#ma417f57d80" x="20.34625" y="45.496981" style="stroke: #000000; stroke-width: 0.3" />
      </g>
     </g>
     <g id="text_1">
      
      <g style="fill: #444443" transform="translate(8.8975 48.360106) scale(0.08 -0.08)">
       <defs>
        <path id="ArialMT-30" d="M 266 2259  Q 266 3072 433 3567  Q 600 4063 929 4331  Q 1259 4600 1759 4600  Q 2128 4600 2406 4451  Q 2684 4303 2865 4023  Q 3047 3744 3150 3342  Q 3253 2941 3253 2259  Q 3253 1453 3087 958  Q 2922 463 2592 192  Q 2263 -78 1759 -78  Q 1097 -78 719 397  Q 266 969 266 2259  z M 844 2259  Q 844 1131 1108 757  Q 1372 384 1759 384  Q 2147 384 2411 759  Q 2675 1134 2675 2259  Q 2675 3391 2411 3762  Q 2147 4134 1753 4134  Q 1366 4134 1134 3806  Q 844 3388 844 2259  z " transform="scale(0.015625)" />
       </defs>
       <use xlink:href="#ArialMT-30" />
      </g>
     </g>
    </g>
    <g id="ytick_2">
     <g id="line2d_2">
      <g>
       <use xlink:href="#ma417f57d80" x="20.34625" y="2.863125" style="stroke: #000000; stroke-width: 0.3" />
      </g>
     </g>
     <g id="text_2">
      
      <g style="fill: #444443" transform="translate(-0 5.72625) scale(0.08 -0.08)">
       <defs>
        <path id="ArialMT-31" d="M 2384 0  L 1822 0  L 1822 3584  Q 1619 3391 1289 3197  Q 959 3003 697 2906  L 697 3450  Q 1169 3672 1522 3987  Q 1875 4303 2022 4600  L 2384 4600  L 2384 0  z " transform="scale(0.015625)" />
       </defs>
       <use xlink:href="#ArialMT-31" />
       <use xlink:href="#ArialMT-30" x="55.615234" />
       <use xlink:href="#ArialMT-30" x="111.230469" />
      </g>
     </g>
    </g>
   </g>
   <g id="line2d_3">
    <path d="M 20.34625 19.632442  L 76.63 19.632442  " clip-path="url(#pf48e847aad)" style="fill: none; stroke-dasharray: 3.7,1.6; stroke-dashoffset: 0; stroke: #444443" />
   </g>
   <g id="patch_3">
    <path d="M 20.34625 45.496981  L 20.34625 1.144981  " style="fill: none; stroke: #444443; stroke-width: 0.3; stroke-linejoin: miter; stroke-linecap: square" />
   </g>
   <g id="text_3">
    
    <g style="fill: #444443" transform="translate(7.9125 55.871981) scale(0.12 -0.12)">
     <defs>
      <path id="ArialMT-74" d="M 1650 503  L 1731 6  Q 1494 -44 1306 -44  Q 1000 -44 831 53  Q 663 150 594 308  Q 525 466 525 972  L 525 2881  L 113 2881  L 113 3319  L 525 3319  L 525 4141  L 1084 4478  L 1084 3319  L 1650 3319  L 1650 2881  L 1084 2881  L 1084 941  Q 1084 700 1114 631  Q 1144 563 1211 522  Q 1278 481 1403 481  Q 1497 481 1650 503  z " transform="scale(0.015625)" />
      <path id="ArialMT-61" d="M 2588 409  Q 2275 144 1986 34  Q 1697 -75 1366 -75  Q 819 -75 525 192  Q 231 459 231 875  Q 231 1119 342 1320  Q 453 1522 633 1644  Q 813 1766 1038 1828  Q 1203 1872 1538 1913  Q 2219 1994 2541 2106  Q 2544 2222 2544 2253  Q 2544 2597 2384 2738  Q 2169 2928 1744 2928  Q 1347 2928 1158 2789  Q 969 2650 878 2297  L 328 2372  Q 403 2725 575 2942  Q 747 3159 1072 3276  Q 1397 3394 1825 3394  Q 2250 3394 2515 3294  Q 2781 3194 2906 3042  Q 3031 2891 3081 2659  Q 3109 2516 3109 2141  L 3109 1391  Q 3109 606 3145 398  Q 3181 191 3288 0  L 2700 0  Q 2613 175 2588 409  z M 2541 1666  Q 2234 1541 1622 1453  Q 1275 1403 1131 1340  Q 988 1278 909 1158  Q 831 1038 831 891  Q 831 666 1001 516  Q 1172 366 1500 366  Q 1825 366 2078 508  Q 2331 650 2450 897  Q 2541 1088 2541 1459  L 2541 1666  z " transform="scale(0.015625)" />
      <path id="ArialMT-72" d="M 416 0  L 416 3319  L 922 3319  L 922 2816  Q 1116 3169 1280 3281  Q 1444 3394 1641 3394  Q 1925 3394 2219 3213  L 2025 2691  Q 1819 2813 1613 2813  Q 1428 2813 1281 2702  Q 1134 2591 1072 2394  Q 978 2094 978 1738  L 978 0  L 416 0  z " transform="scale(0.015625)" />
      <path id="ArialMT-67" d="M 319 -275  L 866 -356  Q 900 -609 1056 -725  Q 1266 -881 1628 -881  Q 2019 -881 2231 -725  Q 2444 -569 2519 -288  Q 2563 -116 2559 434  Q 2191 0 1641 0  Q 956 0 581 494  Q 206 988 206 1678  Q 206 2153 378 2554  Q 550 2956 876 3175  Q 1203 3394 1644 3394  Q 2231 3394 2613 2919  L 2613 3319  L 3131 3319  L 3131 450  Q 3131 -325 2973 -648  Q 2816 -972 2473 -1159  Q 2131 -1347 1631 -1347  Q 1038 -1347 672 -1080  Q 306 -813 319 -275  z M 784 1719  Q 784 1066 1043 766  Q 1303 466 1694 466  Q 2081 466 2343 764  Q 2606 1063 2606 1700  Q 2606 2309 2336 2618  Q 2066 2928 1684 2928  Q 1309 2928 1046 2623  Q 784 2319 784 1719  z " transform="scale(0.015625)" />
      <path id="ArialMT-65" d="M 2694 1069  L 3275 997  Q 3138 488 2766 206  Q 2394 -75 1816 -75  Q 1088 -75 661 373  Q 234 822 234 1631  Q 234 2469 665 2931  Q 1097 3394 1784 3394  Q 2450 3394 2872 2941  Q 3294 2488 3294 1666  Q 3294 1616 3291 1516  L 816 1516  Q 847 969 1125 678  Q 1403 388 1819 388  Q 2128 388 2347 550  Q 2566 713 2694 1069  z M 847 1978  L 2700 1978  Q 2663 2397 2488 2606  Q 2219 2931 1791 2931  Q 1403 2931 1139 2672  Q 875 2413 847 1978  z " transform="scale(0.015625)" />
      <path id="ArialMT-3d" d="M 3381 2694  L 356 2694  L 356 3219  L 3381 3219  L 3381 2694  z M 3381 1303  L 356 1303  L 356 1828  L 3381 1828  L 3381 1303  z " transform="scale(0.015625)" />
      <path id="ArialMT-36" d="M 3184 3459  L 2625 3416  Q 2550 3747 2413 3897  Q 2184 4138 1850 4138  Q 1581 4138 1378 3988  Q 1113 3794 959 3422  Q 806 3050 800 2363  Q 1003 2672 1297 2822  Q 1591 2972 1913 2972  Q 2475 2972 2870 2558  Q 3266 2144 3266 1488  Q 3266 1056 3080 686  Q 2894 316 2569 119  Q 2244 -78 1831 -78  Q 1128 -78 684 439  Q 241 956 241 2144  Q 241 3472 731 4075  Q 1159 4600 1884 4600  Q 2425 4600 2770 4297  Q 3116 3994 3184 3459  z M 888 1484  Q 888 1194 1011 928  Q 1134 663 1356 523  Q 1578 384 1822 384  Q 2178 384 2434 671  Q 2691 959 2691 1453  Q 2691 1928 2437 2201  Q 2184 2475 1800 2475  Q 1419 2475 1153 2201  Q 888 1928 888 1484  z " transform="scale(0.015625)" />
      <path id="ArialMT-2e" d="M 581 0  L 581 641  L 1222 641  L 1222 0  L 581 0  z " transform="scale(0.015625)" />
      <path id="ArialMT-37" d="M 303 3981  L 303 4522  L 3269 4522  L 3269 4084  Q 2831 3619 2401 2847  Q 1972 2075 1738 1259  Q 1569 684 1522 0  L 944 0  Q 953 541 1156 1306  Q 1359 2072 1739 2783  Q 2119 3494 2547 3981  L 303 3981  z " transform="scale(0.015625)" />
     </defs>
     <use xlink:href="#ArialMT-74" />
     <use xlink:href="#ArialMT-61" x="27.783203" />
     <use xlink:href="#ArialMT-72" x="83.398438" />
     <use xlink:href="#ArialMT-67" x="116.699219" />
     <use xlink:href="#ArialMT-65" x="172.314453" />
     <use xlink:href="#ArialMT-74" x="227.929688" />
     <use xlink:href="#ArialMT-3d" x="255.712891" />
     <use xlink:href="#ArialMT-36" x="314.111328" />
     <use xlink:href="#ArialMT-30" x="369.726562" />
     <use xlink:href="#ArialMT-2e" x="425.341797" />
     <use xlink:href="#ArialMT-36" x="453.125" />
     <use xlink:href="#ArialMT-37" x="508.740234" />
    </g>
    
    <g style="fill: #444443" transform="translate(31.59375 68.704856) scale(0.12 -0.12)">
     <defs>
      <path id="ArialMT-6e" d="M 422 0  L 422 3319  L 928 3319  L 928 2847  Q 1294 3394 1984 3394  Q 2284 3394 2536 3286  Q 2788 3178 2913 3003  Q 3038 2828 3088 2588  Q 3119 2431 3119 2041  L 3119 0  L 2556 0  L 2556 2019  Q 2556 2363 2490 2533  Q 2425 2703 2258 2804  Q 2091 2906 1866 2906  Q 1506 2906 1245 2678  Q 984 2450 984 1813  L 984 0  L 422 0  z " transform="scale(0.015625)" />
      <path id="ArialMT-34" d="M 2069 0  L 2069 1097  L 81 1097  L 81 1613  L 2172 4581  L 2631 4581  L 2631 1613  L 3250 1613  L 3250 1097  L 2631 1097  L 2631 0  L 2069 0  z M 2069 1613  L 2069 3678  L 634 1613  L 2069 1613  z " transform="scale(0.015625)" />
     </defs>
     <use xlink:href="#ArialMT-6e" />
     <use xlink:href="#ArialMT-3d" x="55.615234" />
     <use xlink:href="#ArialMT-34" x="114.013672" />
    </g>
   </g>
  </g>
 </g>
 <defs>
  <clipPath id="pf48e847aad">
   <rect x="20.34625" y="1.144981" width="41.85" height="44.352" />
  </clipPath>
 </defs>
</svg></g>

<g id="edge1" class="edge">
<title>node2-&gt;leaf3</title>
<path fill="none" stroke="#444443" stroke-width="0.3" d="M121.53,-78.48C118.91,-73.85 116.26,-69.15 113.69,-64.6" />
<polygon fill="#444443" stroke="#444443" stroke-width="0.3" points="114.97,-64.01 111.78,-61.22 112.53,-65.39 114.97,-64.01" />
</g>

<g id="node4" class="node">
<title>leaf4</title>
<polygon fill="none" stroke="#444443" stroke-width="0" points="206.5,-61 141.5,-61 141.5,0 206.5,0 206.5,-61" />
<svg width="57px" height="53px" viewBox="0 0 75.63 71.089856" version="1.1" preserveAspectRatio="xMinYMin meet" x="145.5" y="-57">
 <metadata>
  <rdf:RDF>
   <ns2:Work>
    <dc:type rdf:resource="http://purl.org/dc/dcmitype/StillImage" />
    <dc:date>2024-04-02T20:55:58.364803</dc:date>
    <dc:format>image/svg+xml</dc:format>
    <dc:creator>
     <ns2:Agent>
      <dc:title>Matplotlib v3.8.2, https://matplotlib.org/</dc:title>
     </ns2:Agent>
    </dc:creator>
   </ns2:Work>
  </rdf:RDF>
 </metadata>
 <defs>
  <style type="text/css">*{stroke-linejoin: round; stroke-linecap: butt}</style>
 </defs>
 <g id="figure_1">
  <g id="patch_1">
   <path d="M 0 71.089856  L 75.63 71.089856  L 75.63 -0  L 0 -0  z " style="fill: #ffffff" />
  </g>
  <g id="axes_1">
   <g id="patch_2">
    <path d="M 20.34625 45.496981  L 62.19625 45.496981  L 62.19625 1.144981  L 20.34625 1.144981  z " style="fill: #ffffff" />
   </g>
   <g id="PathCollection_1">
    <defs>
     <path id="m41a4be1c2d" d="M 0 1.118034  C 0.296506 1.118034 0.580908 1.000231 0.790569 0.790569  C 1.000231 0.580908 1.118034 0.296506 1.118034 0  C 1.118034 -0.296506 1.000231 -0.580908 0.790569 -0.790569  C 0.580908 -1.000231 0.296506 -1.118034 0 -1.118034  C -0.296506 -1.118034 -0.580908 -1.000231 -0.790569 -0.790569  C -1.000231 -0.580908 -1.118034 -0.296506 -1.118034 0  C -1.118034 0.296506 -1.000231 0.580908 -0.790569 0.790569  C -0.580908 1.000231 -0.296506 1.118034 0 1.118034  z " style="stroke: #4575b4; stroke-opacity: 0.7; stroke-width: 0.3" />
    </defs>
    <g clip-path="url(#p597b97d04c)">
     <use xlink:href="#m41a4be1c2d" x="33.630717" y="10.11088" style="fill: #4575b4; fill-opacity: 0.7; stroke: #4575b4; stroke-opacity: 0.7; stroke-width: 0.3" />
     <use xlink:href="#m41a4be1c2d" x="44.031773" y="5.847495" style="fill: #4575b4; fill-opacity: 0.7; stroke: #4575b4; stroke-opacity: 0.7; stroke-width: 0.3" />
     <use xlink:href="#m41a4be1c2d" x="36.722773" y="6.700172" style="fill: #4575b4; fill-opacity: 0.7; stroke: #4575b4; stroke-opacity: 0.7; stroke-width: 0.3" />
     <use xlink:href="#m41a4be1c2d" x="40.711814" y="3.715802" style="fill: #4575b4; fill-opacity: 0.7; stroke: #4575b4; stroke-opacity: 0.7; stroke-width: 0.3" />
     <use xlink:href="#m41a4be1c2d" x="41.71164" y="2.436786" style="fill: #4575b4; fill-opacity: 0.7; stroke: #4575b4; stroke-opacity: 0.7; stroke-width: 0.3" />
    </g>
   </g>
   <g id="matplotlib.axis_1" />
   <g id="matplotlib.axis_2">
    <g id="ytick_1">
     <g id="line2d_1">
      <defs>
       <path id="m289100582d" d="M 0 0  L -3.5 0  " style="stroke: #000000; stroke-width: 0.3" />
      </defs>
      <g>
       <use xlink:href="#m289100582d" x="20.34625" y="45.496981" style="stroke: #000000; stroke-width: 0.3" />
      </g>
     </g>
     <g id="text_1">
      
      <g style="fill: #444443" transform="translate(8.8975 48.360106) scale(0.08 -0.08)">
       <defs>
        <path id="ArialMT-30" d="M 266 2259  Q 266 3072 433 3567  Q 600 4063 929 4331  Q 1259 4600 1759 4600  Q 2128 4600 2406 4451  Q 2684 4303 2865 4023  Q 3047 3744 3150 3342  Q 3253 2941 3253 2259  Q 3253 1453 3087 958  Q 2922 463 2592 192  Q 2263 -78 1759 -78  Q 1097 -78 719 397  Q 266 969 266 2259  z M 844 2259  Q 844 1131 1108 757  Q 1372 384 1759 384  Q 2147 384 2411 759  Q 2675 1134 2675 2259  Q 2675 3391 2411 3762  Q 2147 4134 1753 4134  Q 1366 4134 1134 3806  Q 844 3388 844 2259  z " transform="scale(0.015625)" />
       </defs>
       <use xlink:href="#ArialMT-30" />
      </g>
     </g>
    </g>
    <g id="ytick_2">
     <g id="line2d_2">
      <g>
       <use xlink:href="#m289100582d" x="20.34625" y="2.863125" style="stroke: #000000; stroke-width: 0.3" />
      </g>
     </g>
     <g id="text_2">
      
      <g style="fill: #444443" transform="translate(-0 5.72625) scale(0.08 -0.08)">
       <defs>
        <path id="ArialMT-31" d="M 2384 0  L 1822 0  L 1822 3584  Q 1619 3391 1289 3197  Q 959 3003 697 2906  L 697 3450  Q 1169 3672 1522 3987  Q 1875 4303 2022 4600  L 2384 4600  L 2384 0  z " transform="scale(0.015625)" />
       </defs>
       <use xlink:href="#ArialMT-31" />
       <use xlink:href="#ArialMT-30" x="55.615234" />
       <use xlink:href="#ArialMT-30" x="111.230469" />
      </g>
     </g>
    </g>
   </g>
   <g id="line2d_3">
    <path d="M 20.34625 5.055723  L 76.63 5.055723  " clip-path="url(#p597b97d04c)" style="fill: none; stroke-dasharray: 3.7,1.6; stroke-dashoffset: 0; stroke: #444443" />
   </g>
   <g id="patch_3">
    <path d="M 20.34625 45.496981  L 20.34625 1.144981  " style="fill: none; stroke: #444443; stroke-width: 0.3; stroke-linejoin: miter; stroke-linecap: square" />
   </g>
   <g id="text_3">
    
    <g style="fill: #444443" transform="translate(7.9125 55.871981) scale(0.12 -0.12)">
     <defs>
      <path id="ArialMT-74" d="M 1650 503  L 1731 6  Q 1494 -44 1306 -44  Q 1000 -44 831 53  Q 663 150 594 308  Q 525 466 525 972  L 525 2881  L 113 2881  L 113 3319  L 525 3319  L 525 4141  L 1084 4478  L 1084 3319  L 1650 3319  L 1650 2881  L 1084 2881  L 1084 941  Q 1084 700 1114 631  Q 1144 563 1211 522  Q 1278 481 1403 481  Q 1497 481 1650 503  z " transform="scale(0.015625)" />
      <path id="ArialMT-61" d="M 2588 409  Q 2275 144 1986 34  Q 1697 -75 1366 -75  Q 819 -75 525 192  Q 231 459 231 875  Q 231 1119 342 1320  Q 453 1522 633 1644  Q 813 1766 1038 1828  Q 1203 1872 1538 1913  Q 2219 1994 2541 2106  Q 2544 2222 2544 2253  Q 2544 2597 2384 2738  Q 2169 2928 1744 2928  Q 1347 2928 1158 2789  Q 969 2650 878 2297  L 328 2372  Q 403 2725 575 2942  Q 747 3159 1072 3276  Q 1397 3394 1825 3394  Q 2250 3394 2515 3294  Q 2781 3194 2906 3042  Q 3031 2891 3081 2659  Q 3109 2516 3109 2141  L 3109 1391  Q 3109 606 3145 398  Q 3181 191 3288 0  L 2700 0  Q 2613 175 2588 409  z M 2541 1666  Q 2234 1541 1622 1453  Q 1275 1403 1131 1340  Q 988 1278 909 1158  Q 831 1038 831 891  Q 831 666 1001 516  Q 1172 366 1500 366  Q 1825 366 2078 508  Q 2331 650 2450 897  Q 2541 1088 2541 1459  L 2541 1666  z " transform="scale(0.015625)" />
      <path id="ArialMT-72" d="M 416 0  L 416 3319  L 922 3319  L 922 2816  Q 1116 3169 1280 3281  Q 1444 3394 1641 3394  Q 1925 3394 2219 3213  L 2025 2691  Q 1819 2813 1613 2813  Q 1428 2813 1281 2702  Q 1134 2591 1072 2394  Q 978 2094 978 1738  L 978 0  L 416 0  z " transform="scale(0.015625)" />
      <path id="ArialMT-67" d="M 319 -275  L 866 -356  Q 900 -609 1056 -725  Q 1266 -881 1628 -881  Q 2019 -881 2231 -725  Q 2444 -569 2519 -288  Q 2563 -116 2559 434  Q 2191 0 1641 0  Q 956 0 581 494  Q 206 988 206 1678  Q 206 2153 378 2554  Q 550 2956 876 3175  Q 1203 3394 1644 3394  Q 2231 3394 2613 2919  L 2613 3319  L 3131 3319  L 3131 450  Q 3131 -325 2973 -648  Q 2816 -972 2473 -1159  Q 2131 -1347 1631 -1347  Q 1038 -1347 672 -1080  Q 306 -813 319 -275  z M 784 1719  Q 784 1066 1043 766  Q 1303 466 1694 466  Q 2081 466 2343 764  Q 2606 1063 2606 1700  Q 2606 2309 2336 2618  Q 2066 2928 1684 2928  Q 1309 2928 1046 2623  Q 784 2319 784 1719  z " transform="scale(0.015625)" />
      <path id="ArialMT-65" d="M 2694 1069  L 3275 997  Q 3138 488 2766 206  Q 2394 -75 1816 -75  Q 1088 -75 661 373  Q 234 822 234 1631  Q 234 2469 665 2931  Q 1097 3394 1784 3394  Q 2450 3394 2872 2941  Q 3294 2488 3294 1666  Q 3294 1616 3291 1516  L 816 1516  Q 847 969 1125 678  Q 1403 388 1819 388  Q 2128 388 2347 550  Q 2566 713 2694 1069  z M 847 1978  L 2700 1978  Q 2663 2397 2488 2606  Q 2219 2931 1791 2931  Q 1403 2931 1139 2672  Q 875 2413 847 1978  z " transform="scale(0.015625)" />
      <path id="ArialMT-3d" d="M 3381 2694  L 356 2694  L 356 3219  L 3381 3219  L 3381 2694  z M 3381 1303  L 356 1303  L 356 1828  L 3381 1828  L 3381 1303  z " transform="scale(0.015625)" />
      <path id="ArialMT-39" d="M 350 1059  L 891 1109  Q 959 728 1153 556  Q 1347 384 1650 384  Q 1909 384 2104 503  Q 2300 622 2425 820  Q 2550 1019 2634 1356  Q 2719 1694 2719 2044  Q 2719 2081 2716 2156  Q 2547 1888 2255 1720  Q 1963 1553 1622 1553  Q 1053 1553 659 1965  Q 266 2378 266 3053  Q 266 3750 677 4175  Q 1088 4600 1706 4600  Q 2153 4600 2523 4359  Q 2894 4119 3086 3673  Q 3278 3228 3278 2384  Q 3278 1506 3087 986  Q 2897 466 2520 194  Q 2144 -78 1638 -78  Q 1100 -78 759 220  Q 419 519 350 1059  z M 2653 3081  Q 2653 3566 2395 3850  Q 2138 4134 1775 4134  Q 1400 4134 1122 3828  Q 844 3522 844 3034  Q 844 2597 1108 2323  Q 1372 2050 1759 2050  Q 2150 2050 2401 2323  Q 2653 2597 2653 3081  z " transform="scale(0.015625)" />
      <path id="ArialMT-34" d="M 2069 0  L 2069 1097  L 81 1097  L 81 1613  L 2172 4581  L 2631 4581  L 2631 1613  L 3250 1613  L 3250 1097  L 2631 1097  L 2631 0  L 2069 0  z M 2069 1613  L 2069 3678  L 634 1613  L 2069 1613  z " transform="scale(0.015625)" />
      <path id="ArialMT-2e" d="M 581 0  L 581 641  L 1222 641  L 1222 0  L 581 0  z " transform="scale(0.015625)" />
      <path id="ArialMT-38" d="M 1131 2484  Q 781 2613 612 2850  Q 444 3088 444 3419  Q 444 3919 803 4259  Q 1163 4600 1759 4600  Q 2359 4600 2725 4251  Q 3091 3903 3091 3403  Q 3091 3084 2923 2848  Q 2756 2613 2416 2484  Q 2838 2347 3058 2040  Q 3278 1734 3278 1309  Q 3278 722 2862 322  Q 2447 -78 1769 -78  Q 1091 -78 675 323  Q 259 725 259 1325  Q 259 1772 486 2073  Q 713 2375 1131 2484  z M 1019 3438  Q 1019 3113 1228 2906  Q 1438 2700 1772 2700  Q 2097 2700 2305 2904  Q 2513 3109 2513 3406  Q 2513 3716 2298 3927  Q 2084 4138 1766 4138  Q 1444 4138 1231 3931  Q 1019 3725 1019 3438  z M 838 1322  Q 838 1081 952 856  Q 1066 631 1291 507  Q 1516 384 1775 384  Q 2178 384 2440 643  Q 2703 903 2703 1303  Q 2703 1709 2433 1975  Q 2163 2241 1756 2241  Q 1359 2241 1098 1978  Q 838 1716 838 1322  z " transform="scale(0.015625)" />
      <path id="ArialMT-36" d="M 3184 3459  L 2625 3416  Q 2550 3747 2413 3897  Q 2184 4138 1850 4138  Q 1581 4138 1378 3988  Q 1113 3794 959 3422  Q 806 3050 800 2363  Q 1003 2672 1297 2822  Q 1591 2972 1913 2972  Q 2475 2972 2870 2558  Q 3266 2144 3266 1488  Q 3266 1056 3080 686  Q 2894 316 2569 119  Q 2244 -78 1831 -78  Q 1128 -78 684 439  Q 241 956 241 2144  Q 241 3472 731 4075  Q 1159 4600 1884 4600  Q 2425 4600 2770 4297  Q 3116 3994 3184 3459  z M 888 1484  Q 888 1194 1011 928  Q 1134 663 1356 523  Q 1578 384 1822 384  Q 2178 384 2434 671  Q 2691 959 2691 1453  Q 2691 1928 2437 2201  Q 2184 2475 1800 2475  Q 1419 2475 1153 2201  Q 888 1928 888 1484  z " transform="scale(0.015625)" />
     </defs>
     <use xlink:href="#ArialMT-74" />
     <use xlink:href="#ArialMT-61" x="27.783203" />
     <use xlink:href="#ArialMT-72" x="83.398438" />
     <use xlink:href="#ArialMT-67" x="116.699219" />
     <use xlink:href="#ArialMT-65" x="172.314453" />
     <use xlink:href="#ArialMT-74" x="227.929688" />
     <use xlink:href="#ArialMT-3d" x="255.712891" />
     <use xlink:href="#ArialMT-39" x="314.111328" />
     <use xlink:href="#ArialMT-34" x="369.726562" />
     <use xlink:href="#ArialMT-2e" x="425.341797" />
     <use xlink:href="#ArialMT-38" x="453.125" />
     <use xlink:href="#ArialMT-36" x="508.740234" />
    </g>
    
    <g style="fill: #444443" transform="translate(31.59375 68.704856) scale(0.12 -0.12)">
     <defs>
      <path id="ArialMT-6e" d="M 422 0  L 422 3319  L 928 3319  L 928 2847  Q 1294 3394 1984 3394  Q 2284 3394 2536 3286  Q 2788 3178 2913 3003  Q 3038 2828 3088 2588  Q 3119 2431 3119 2041  L 3119 0  L 2556 0  L 2556 2019  Q 2556 2363 2490 2533  Q 2425 2703 2258 2804  Q 2091 2906 1866 2906  Q 1506 2906 1245 2678  Q 984 2450 984 1813  L 984 0  L 422 0  z " transform="scale(0.015625)" />
      <path id="ArialMT-35" d="M 266 1200  L 856 1250  Q 922 819 1161 601  Q 1400 384 1738 384  Q 2144 384 2425 690  Q 2706 997 2706 1503  Q 2706 1984 2436 2262  Q 2166 2541 1728 2541  Q 1456 2541 1237 2417  Q 1019 2294 894 2097  L 366 2166  L 809 4519  L 3088 4519  L 3088 3981  L 1259 3981  L 1013 2750  Q 1425 3038 1878 3038  Q 2478 3038 2890 2622  Q 3303 2206 3303 1553  Q 3303 931 2941 478  Q 2500 -78 1738 -78  Q 1113 -78 717 272  Q 322 622 266 1200  z " transform="scale(0.015625)" />
     </defs>
     <use xlink:href="#ArialMT-6e" />
     <use xlink:href="#ArialMT-3d" x="55.615234" />
     <use xlink:href="#ArialMT-35" x="114.013672" />
    </g>
   </g>
  </g>
 </g>
 <defs>
  <clipPath id="p597b97d04c">
   <rect x="20.34625" y="1.144981" width="41.85" height="44.352" />
  </clipPath>
 </defs>
</svg></g>

<g id="edge2" class="edge">
<title>node2-&gt;leaf4</title>
<path fill="none" stroke="#444443" stroke-width="0.3" d="M156.87,-78.48C158.52,-73.94 160.2,-69.34 161.83,-64.87" />
<polygon fill="#444443" stroke="#444443" stroke-width="0.3" points="163.1,-65.49 163.15,-61.25 160.47,-64.53 163.1,-65.49" />
</g>

<g id="node2" class="node">
<title>node0</title>
<svg width="137px" height="71px" viewBox="0 0 182.605 95.275301" version="1.1" preserveAspectRatio="xMinYMin meet" x="17.5" y="-264.5">
 <metadata>
  <rdf:RDF>
   <ns2:Work>
    <dc:type rdf:resource="http://purl.org/dc/dcmitype/StillImage" />
    <dc:date>2024-04-02T20:55:58.158757</dc:date>
    <dc:format>image/svg+xml</dc:format>
    <dc:creator>
     <ns2:Agent>
      <dc:title>Matplotlib v3.8.2, https://matplotlib.org/</dc:title>
     </ns2:Agent>
    </dc:creator>
   </ns2:Work>
  </rdf:RDF>
 </metadata>
 <defs>
  <style type="text/css">*{stroke-linejoin: round; stroke-linecap: butt}</style>
 </defs>
 <g id="figure_1">
  <g id="patch_1">
   <path d="M -0 95.275301  L 182.605 95.275301  L 182.605 0  L -0 0  z " style="fill: #ffffff" />
  </g>
  <g id="axes_1">
   <g id="patch_2">
    <path d="M 35.320625 61.484676  L 174.820625 61.484676  L 174.820625 0.500676  L 35.320625 0.500676  z " style="fill: #ffffff" />
   </g>
   <g id="PathCollection_1">
    <defs>
     <path id="mf487e3eeb0" d="M 0 1.118034  C 0.296506 1.118034 0.580908 1.000231 0.790569 0.790569  C 1.000231 0.580908 1.118034 0.296506 1.118034 0  C 1.118034 -0.296506 1.000231 -0.580908 0.790569 -0.790569  C 0.580908 -1.000231 0.296506 -1.118034 0 -1.118034  C -0.296506 -1.118034 -0.580908 -1.000231 -0.790569 -0.790569  C -1.000231 -0.580908 -1.118034 -0.296506 -1.118034 0  C -1.118034 0.296506 -1.000231 0.580908 -0.790569 0.790569  C -0.580908 1.000231 -0.296506 1.118034 0 1.118034  z " style="stroke: #4575b4; stroke-opacity: 0.7; stroke-width: 0.3" />
    </defs>
    <g clip-path="url(#pfb8df22408)">
     <use xlink:href="#mf487e3eeb0" x="35.320625" y="61.484676" style="fill: #4575b4; fill-opacity: 0.7; stroke: #4575b4; stroke-opacity: 0.7; stroke-width: 0.3" />
     <use xlink:href="#mf487e3eeb0" x="46.051394" y="61.484676" style="fill: #4575b4; fill-opacity: 0.7; stroke: #4575b4; stroke-opacity: 0.7; stroke-width: 0.3" />
     <use xlink:href="#mf487e3eeb0" x="56.782163" y="61.484676" style="fill: #4575b4; fill-opacity: 0.7; stroke: #4575b4; stroke-opacity: 0.7; stroke-width: 0.3" />
     <use xlink:href="#mf487e3eeb0" x="67.512933" y="61.484676" style="fill: #4575b4; fill-opacity: 0.7; stroke: #4575b4; stroke-opacity: 0.7; stroke-width: 0.3" />
     <use xlink:href="#mf487e3eeb0" x="78.243702" y="26.311746" style="fill: #4575b4; fill-opacity: 0.7; stroke: #4575b4; stroke-opacity: 0.7; stroke-width: 0.3" />
     <use xlink:href="#mf487e3eeb0" x="88.974471" y="23.966884" style="fill: #4575b4; fill-opacity: 0.7; stroke: #4575b4; stroke-opacity: 0.7; stroke-width: 0.3" />
     <use xlink:href="#mf487e3eeb0" x="99.70524" y="29.242823" style="fill: #4575b4; fill-opacity: 0.7; stroke: #4575b4; stroke-opacity: 0.7; stroke-width: 0.3" />
     <use xlink:href="#mf487e3eeb0" x="110.43601" y="25.72553" style="fill: #4575b4; fill-opacity: 0.7; stroke: #4575b4; stroke-opacity: 0.7; stroke-width: 0.3" />
     <use xlink:href="#mf487e3eeb0" x="121.166779" y="22.794453" style="fill: #4575b4; fill-opacity: 0.7; stroke: #4575b4; stroke-opacity: 0.7; stroke-width: 0.3" />
     <use xlink:href="#mf487e3eeb0" x="131.897548" y="12.828789" style="fill: #4575b4; fill-opacity: 0.7; stroke: #4575b4; stroke-opacity: 0.7; stroke-width: 0.3" />
     <use xlink:href="#mf487e3eeb0" x="142.628317" y="6.966634" style="fill: #4575b4; fill-opacity: 0.7; stroke: #4575b4; stroke-opacity: 0.7; stroke-width: 0.3" />
     <use xlink:href="#mf487e3eeb0" x="153.359087" y="8.139065" style="fill: #4575b4; fill-opacity: 0.7; stroke: #4575b4; stroke-opacity: 0.7; stroke-width: 0.3" />
     <use xlink:href="#mf487e3eeb0" x="164.089856" y="4.035556" style="fill: #4575b4; fill-opacity: 0.7; stroke: #4575b4; stroke-opacity: 0.7; stroke-width: 0.3" />
     <use xlink:href="#mf487e3eeb0" x="174.820625" y="2.276909" style="fill: #4575b4; fill-opacity: 0.7; stroke: #4575b4; stroke-opacity: 0.7; stroke-width: 0.3" />
    </g>
   </g>
   <g id="patch_3">
    <path d="M 83.609087 61.484676  L 81.098087 67.583076  L 86.120087 67.583076  z " style="fill: #444443" />
   </g>
   <g id="matplotlib.axis_1">
    <g id="xtick_1">
     <g id="line2d_1">
      <defs>
       <path id="m7e920d0f20" d="M 0 0  L 0 3.5  " style="stroke: #000000; stroke-width: 0.3" />
      </defs>
      <g>
       <use xlink:href="#m7e920d0f20" x="35.320625" y="61.484676" style="stroke: #000000; stroke-width: 0.3" />
      </g>
     </g>
     <g id="text_1">
      
      <g style="fill: #444443" transform="translate(27.53625 78.710926) scale(0.08 -0.08)">
       <defs>
        <path id="ArialMT-31" d="M 2384 0  L 1822 0  L 1822 3584  Q 1619 3391 1289 3197  Q 959 3003 697 2906  L 697 3450  Q 1169 3672 1522 3987  Q 1875 4303 2022 4600  L 2384 4600  L 2384 0  z " transform="scale(0.015625)" />
        <path id="ArialMT-2e" d="M 581 0  L 581 641  L 1222 641  L 1222 0  L 581 0  z " transform="scale(0.015625)" />
        <path id="ArialMT-30" d="M 266 2259  Q 266 3072 433 3567  Q 600 4063 929 4331  Q 1259 4600 1759 4600  Q 2128 4600 2406 4451  Q 2684 4303 2865 4023  Q 3047 3744 3150 3342  Q 3253 2941 3253 2259  Q 3253 1453 3087 958  Q 2922 463 2592 192  Q 2263 -78 1759 -78  Q 1097 -78 719 397  Q 266 969 266 2259  z M 844 2259  Q 844 1131 1108 757  Q 1372 384 1759 384  Q 2147 384 2411 759  Q 2675 1134 2675 2259  Q 2675 3391 2411 3762  Q 2147 4134 1753 4134  Q 1366 4134 1134 3806  Q 844 3388 844 2259  z " transform="scale(0.015625)" />
       </defs>
       <use xlink:href="#ArialMT-31" />
       <use xlink:href="#ArialMT-2e" x="55.615234" />
       <use xlink:href="#ArialMT-30" x="83.398438" />
       <use xlink:href="#ArialMT-30" x="139.013672" />
      </g>
     </g>
    </g>
    <g id="xtick_2">
     <g id="line2d_2">
      <g>
       <use xlink:href="#m7e920d0f20" x="83.609087" y="61.484676" style="stroke: #000000; stroke-width: 0.3" />
      </g>
     </g>
     <g id="text_2">
      
      <g style="fill: #444443" transform="translate(75.824712 78.710926) scale(0.08 -0.08)">
       <defs>
        <path id="ArialMT-33" d="M 269 1209  L 831 1284  Q 928 806 1161 595  Q 1394 384 1728 384  Q 2125 384 2398 659  Q 2672 934 2672 1341  Q 2672 1728 2419 1979  Q 2166 2231 1775 2231  Q 1616 2231 1378 2169  L 1441 2663  Q 1497 2656 1531 2656  Q 1891 2656 2178 2843  Q 2466 3031 2466 3422  Q 2466 3731 2256 3934  Q 2047 4138 1716 4138  Q 1388 4138 1169 3931  Q 950 3725 888 3313  L 325 3413  Q 428 3978 793 4289  Q 1159 4600 1703 4600  Q 2078 4600 2393 4439  Q 2709 4278 2876 4000  Q 3044 3722 3044 3409  Q 3044 3113 2884 2869  Q 2725 2625 2413 2481  Q 2819 2388 3044 2092  Q 3269 1797 3269 1353  Q 3269 753 2831 336  Q 2394 -81 1725 -81  Q 1122 -81 723 278  Q 325 638 269 1209  z " transform="scale(0.015625)" />
        <path id="ArialMT-32" d="M 3222 541  L 3222 0  L 194 0  Q 188 203 259 391  Q 375 700 629 1000  Q 884 1300 1366 1694  Q 2113 2306 2375 2664  Q 2638 3022 2638 3341  Q 2638 3675 2398 3904  Q 2159 4134 1775 4134  Q 1369 4134 1125 3890  Q 881 3647 878 3216  L 300 3275  Q 359 3922 746 4261  Q 1134 4600 1788 4600  Q 2447 4600 2831 4234  Q 3216 3869 3216 3328  Q 3216 3053 3103 2787  Q 2991 2522 2730 2228  Q 2469 1934 1863 1422  Q 1356 997 1212 845  Q 1069 694 975 541  L 3222 541  z " transform="scale(0.015625)" />
        <path id="ArialMT-35" d="M 266 1200  L 856 1250  Q 922 819 1161 601  Q 1400 384 1738 384  Q 2144 384 2425 690  Q 2706 997 2706 1503  Q 2706 1984 2436 2262  Q 2166 2541 1728 2541  Q 1456 2541 1237 2417  Q 1019 2294 894 2097  L 366 2166  L 809 4519  L 3088 4519  L 3088 3981  L 1259 3981  L 1013 2750  Q 1425 3038 1878 3038  Q 2478 3038 2890 2622  Q 3303 2206 3303 1553  Q 3303 931 2941 478  Q 2500 -78 1738 -78  Q 1113 -78 717 272  Q 322 622 266 1200  z " transform="scale(0.015625)" />
       </defs>
       <use xlink:href="#ArialMT-33" />
       <use xlink:href="#ArialMT-2e" x="55.615234" />
       <use xlink:href="#ArialMT-32" x="83.398438" />
       <use xlink:href="#ArialMT-35" x="139.013672" />
      </g>
     </g>
    </g>
    <g id="xtick_3">
     <g id="line2d_3">
      <g>
       <use xlink:href="#m7e920d0f20" x="174.820625" y="61.484676" style="stroke: #000000; stroke-width: 0.3" />
      </g>
     </g>
     <g id="text_3">
      
      <g style="fill: #444443" transform="translate(167.03625 78.710926) scale(0.08 -0.08)">
       <defs>
        <path id="ArialMT-37" d="M 303 3981  L 303 4522  L 3269 4522  L 3269 4084  Q 2831 3619 2401 2847  Q 1972 2075 1738 1259  Q 1569 684 1522 0  L 944 0  Q 953 541 1156 1306  Q 1359 2072 1739 2783  Q 2119 3494 2547 3981  L 303 3981  z " transform="scale(0.015625)" />
       </defs>
       <use xlink:href="#ArialMT-37" />
       <use xlink:href="#ArialMT-2e" x="55.615234" />
       <use xlink:href="#ArialMT-35" x="83.398438" />
       <use xlink:href="#ArialMT-30" x="139.013672" />
      </g>
     </g>
    </g>
    <g id="text_4">
     
     <g style="fill: #444443" transform="translate(59.929063 92.890301) scale(0.12 -0.12)">
      <defs>
       <path id="ArialMT-59" d="M 1784 0  L 1784 1941  L 19 4581  L 756 4581  L 1659 3200  Q 1909 2813 2125 2425  Q 2331 2784 2625 3234  L 3513 4581  L 4219 4581  L 2391 1941  L 2391 0  L 1784 0  z " transform="scale(0.015625)" />
       <path id="ArialMT-65" d="M 2694 1069  L 3275 997  Q 3138 488 2766 206  Q 2394 -75 1816 -75  Q 1088 -75 661 373  Q 234 822 234 1631  Q 234 2469 665 2931  Q 1097 3394 1784 3394  Q 2450 3394 2872 2941  Q 3294 2488 3294 1666  Q 3294 1616 3291 1516  L 816 1516  Q 847 969 1125 678  Q 1403 388 1819 388  Q 2128 388 2347 550  Q 2566 713 2694 1069  z M 847 1978  L 2700 1978  Q 2663 2397 2488 2606  Q 2219 2931 1791 2931  Q 1403 2931 1139 2672  Q 875 2413 847 1978  z " transform="scale(0.015625)" />
       <path id="ArialMT-61" d="M 2588 409  Q 2275 144 1986 34  Q 1697 -75 1366 -75  Q 819 -75 525 192  Q 231 459 231 875  Q 231 1119 342 1320  Q 453 1522 633 1644  Q 813 1766 1038 1828  Q 1203 1872 1538 1913  Q 2219 1994 2541 2106  Q 2544 2222 2544 2253  Q 2544 2597 2384 2738  Q 2169 2928 1744 2928  Q 1347 2928 1158 2789  Q 969 2650 878 2297  L 328 2372  Q 403 2725 575 2942  Q 747 3159 1072 3276  Q 1397 3394 1825 3394  Q 2250 3394 2515 3294  Q 2781 3194 2906 3042  Q 3031 2891 3081 2659  Q 3109 2516 3109 2141  L 3109 1391  Q 3109 606 3145 398  Q 3181 191 3288 0  L 2700 0  Q 2613 175 2588 409  z M 2541 1666  Q 2234 1541 1622 1453  Q 1275 1403 1131 1340  Q 988 1278 909 1158  Q 831 1038 831 891  Q 831 666 1001 516  Q 1172 366 1500 366  Q 1825 366 2078 508  Q 2331 650 2450 897  Q 2541 1088 2541 1459  L 2541 1666  z " transform="scale(0.015625)" />
       <path id="ArialMT-72" d="M 416 0  L 416 3319  L 922 3319  L 922 2816  Q 1116 3169 1280 3281  Q 1444 3394 1641 3394  Q 1925 3394 2219 3213  L 2025 2691  Q 1819 2813 1613 2813  Q 1428 2813 1281 2702  Q 1134 2591 1072 2394  Q 978 2094 978 1738  L 978 0  L 416 0  z " transform="scale(0.015625)" />
       <path id="ArialMT-73" d="M 197 991  L 753 1078  Q 800 744 1014 566  Q 1228 388 1613 388  Q 2000 388 2187 545  Q 2375 703 2375 916  Q 2375 1106 2209 1216  Q 2094 1291 1634 1406  Q 1016 1563 777 1677  Q 538 1791 414 1992  Q 291 2194 291 2438  Q 291 2659 392 2848  Q 494 3038 669 3163  Q 800 3259 1026 3326  Q 1253 3394 1513 3394  Q 1903 3394 2198 3281  Q 2494 3169 2634 2976  Q 2775 2784 2828 2463  L 2278 2388  Q 2241 2644 2061 2787  Q 1881 2931 1553 2931  Q 1166 2931 1000 2803  Q 834 2675 834 2503  Q 834 2394 903 2306  Q 972 2216 1119 2156  Q 1203 2125 1616 2013  Q 2213 1853 2448 1751  Q 2684 1650 2818 1456  Q 2953 1263 2953 975  Q 2953 694 2789 445  Q 2625 197 2315 61  Q 2006 -75 1616 -75  Q 969 -75 630 194  Q 291 463 197 991  z " transform="scale(0.015625)" />
       <path id="ArialMT-45" d="M 506 0  L 506 4581  L 3819 4581  L 3819 4041  L 1113 4041  L 1113 2638  L 3647 2638  L 3647 2100  L 1113 2100  L 1113 541  L 3925 541  L 3925 0  L 506 0  z " transform="scale(0.015625)" />
       <path id="ArialMT-78" d="M 47 0  L 1259 1725  L 138 3319  L 841 3319  L 1350 2541  Q 1494 2319 1581 2169  Q 1719 2375 1834 2534  L 2394 3319  L 3066 3319  L 1919 1756  L 3153 0  L 2463 0  L 1781 1031  L 1600 1309  L 728 0  L 47 0  z " transform="scale(0.015625)" />
       <path id="ArialMT-70" d="M 422 -1272  L 422 3319  L 934 3319  L 934 2888  Q 1116 3141 1344 3267  Q 1572 3394 1897 3394  Q 2322 3394 2647 3175  Q 2972 2956 3137 2557  Q 3303 2159 3303 1684  Q 3303 1175 3120 767  Q 2938 359 2589 142  Q 2241 -75 1856 -75  Q 1575 -75 1351 44  Q 1128 163 984 344  L 984 -1272  L 422 -1272  z M 931 1641  Q 931 1000 1190 694  Q 1450 388 1819 388  Q 2194 388 2461 705  Q 2728 1022 2728 1688  Q 2728 2322 2467 2637  Q 2206 2953 1844 2953  Q 1484 2953 1207 2617  Q 931 2281 931 1641  z " transform="scale(0.015625)" />
       <path id="ArialMT-69" d="M 425 3934  L 425 4581  L 988 4581  L 988 3934  L 425 3934  z M 425 0  L 425 3319  L 988 3319  L 988 0  L 425 0  z " transform="scale(0.015625)" />
       <path id="ArialMT-6e" d="M 422 0  L 422 3319  L 928 3319  L 928 2847  Q 1294 3394 1984 3394  Q 2284 3394 2536 3286  Q 2788 3178 2913 3003  Q 3038 2828 3088 2588  Q 3119 2431 3119 2041  L 3119 0  L 2556 0  L 2556 2019  Q 2556 2363 2490 2533  Q 2425 2703 2258 2804  Q 2091 2906 1866 2906  Q 1506 2906 1245 2678  Q 984 2450 984 1813  L 984 0  L 422 0  z " transform="scale(0.015625)" />
       <path id="ArialMT-63" d="M 2588 1216  L 3141 1144  Q 3050 572 2676 248  Q 2303 -75 1759 -75  Q 1078 -75 664 370  Q 250 816 250 1647  Q 250 2184 428 2587  Q 606 2991 970 3192  Q 1334 3394 1763 3394  Q 2303 3394 2647 3120  Q 2991 2847 3088 2344  L 2541 2259  Q 2463 2594 2264 2762  Q 2066 2931 1784 2931  Q 1359 2931 1093 2626  Q 828 2322 828 1663  Q 828 994 1084 691  Q 1341 388 1753 388  Q 2084 388 2306 591  Q 2528 794 2588 1216  z " transform="scale(0.015625)" />
      </defs>
      <use xlink:href="#ArialMT-59" />
      <use xlink:href="#ArialMT-65" x="57.574219" />
      <use xlink:href="#ArialMT-61" x="113.189453" />
      <use xlink:href="#ArialMT-72" x="168.804688" />
      <use xlink:href="#ArialMT-73" x="202.105469" />
      <use xlink:href="#ArialMT-45" x="252.105469" />
      <use xlink:href="#ArialMT-78" x="318.804688" />
      <use xlink:href="#ArialMT-70" x="368.804688" />
      <use xlink:href="#ArialMT-65" x="424.419922" />
      <use xlink:href="#ArialMT-72" x="480.035156" />
      <use xlink:href="#ArialMT-69" x="513.335938" />
      <use xlink:href="#ArialMT-65" x="535.552734" />
      <use xlink:href="#ArialMT-6e" x="591.167969" />
      <use xlink:href="#ArialMT-63" x="646.783203" />
      <use xlink:href="#ArialMT-65" x="696.783203" />
     </g>
    </g>
   </g>
   <g id="matplotlib.axis_2">
    <g id="ytick_1">
     <g id="line2d_4">
      <defs>
       <path id="mb40fa0b118" d="M 0 0  L -3.5 0  " style="stroke: #000000; stroke-width: 0.3" />
      </defs>
      <g>
       <use xlink:href="#mb40fa0b118" x="35.320625" y="61.484676" style="stroke: #000000; stroke-width: 0.3" />
      </g>
     </g>
     <g id="text_5">
      
      <g style="fill: #444443" transform="translate(23.871875 64.347801) scale(0.08 -0.08)">
       <use xlink:href="#ArialMT-30" />
      </g>
     </g>
    </g>
    <g id="ytick_2">
     <g id="line2d_5">
      <g>
       <use xlink:href="#mb40fa0b118" x="35.320625" y="32.173901" style="stroke: #000000; stroke-width: 0.3" />
      </g>
     </g>
     <g id="text_6">
      
      <g style="fill: #444443" transform="translate(19.423125 35.037026) scale(0.08 -0.08)">
       <use xlink:href="#ArialMT-35" />
       <use xlink:href="#ArialMT-30" x="55.615234" />
      </g>
     </g>
    </g>
    <g id="ytick_3">
     <g id="line2d_6">
      <g>
       <use xlink:href="#mb40fa0b118" x="35.320625" y="2.863125" style="stroke: #000000; stroke-width: 0.3" />
      </g>
     </g>
     <g id="text_7">
      
      <g style="fill: #444443" transform="translate(14.974375 5.72625) scale(0.08 -0.08)">
       <use xlink:href="#ArialMT-31" />
       <use xlink:href="#ArialMT-30" x="55.615234" />
       <use xlink:href="#ArialMT-30" x="111.230469" />
      </g>
     </g>
    </g>
    <g id="text_8">
     
     <g style="fill: #444443" transform="translate(8.44875 46.333926) rotate(-90) scale(0.12 -0.12)">
      <defs>
       <path id="ArialMT-74" d="M 1650 503  L 1731 6  Q 1494 -44 1306 -44  Q 1000 -44 831 53  Q 663 150 594 308  Q 525 466 525 972  L 525 2881  L 113 2881  L 113 3319  L 525 3319  L 525 4141  L 1084 4478  L 1084 3319  L 1650 3319  L 1650 2881  L 1084 2881  L 1084 941  Q 1084 700 1114 631  Q 1144 563 1211 522  Q 1278 481 1403 481  Q 1497 481 1650 503  z " transform="scale(0.015625)" />
       <path id="ArialMT-67" d="M 319 -275  L 866 -356  Q 900 -609 1056 -725  Q 1266 -881 1628 -881  Q 2019 -881 2231 -725  Q 2444 -569 2519 -288  Q 2563 -116 2559 434  Q 2191 0 1641 0  Q 956 0 581 494  Q 206 988 206 1678  Q 206 2153 378 2554  Q 550 2956 876 3175  Q 1203 3394 1644 3394  Q 2231 3394 2613 2919  L 2613 3319  L 3131 3319  L 3131 450  Q 3131 -325 2973 -648  Q 2816 -972 2473 -1159  Q 2131 -1347 1631 -1347  Q 1038 -1347 672 -1080  Q 306 -813 319 -275  z M 784 1719  Q 784 1066 1043 766  Q 1303 466 1694 466  Q 2081 466 2343 764  Q 2606 1063 2606 1700  Q 2606 2309 2336 2618  Q 2066 2928 1684 2928  Q 1309 2928 1046 2623  Q 784 2319 784 1719  z " transform="scale(0.015625)" />
      </defs>
      <use xlink:href="#ArialMT-74" />
      <use xlink:href="#ArialMT-61" x="27.783203" />
      <use xlink:href="#ArialMT-72" x="83.398438" />
      <use xlink:href="#ArialMT-67" x="116.699219" />
      <use xlink:href="#ArialMT-65" x="172.314453" />
      <use xlink:href="#ArialMT-74" x="227.929688" />
     </g>
    </g>
   </g>
   <g id="line2d_7">
    <path d="M 35.320625 54.45009  L 83.609087 54.45009  " clip-path="url(#pfb8df22408)" style="fill: none; stroke-dasharray: 3.7,1.6; stroke-dashoffset: 0; stroke: #444443" />
   </g>
   <g id="line2d_8">
    <path d="M 83.609087 61.484676  L 83.609087 0.500676  " clip-path="url(#pfb8df22408)" style="fill: none; stroke-dasharray: 3.7,1.6; stroke-dashoffset: 0; stroke: #444443" />
   </g>
   <g id="line2d_9">
    <path d="M 83.609087 15.108516  L 174.820625 15.108516  " clip-path="url(#pfb8df22408)" style="fill: none; stroke-dasharray: 3.7,1.6; stroke-dashoffset: 0; stroke: #444443" />
   </g>
   <g id="patch_4">
    <path d="M 35.320625 61.484676  L 35.320625 0.500676  " style="fill: none; stroke: #444443; stroke-width: 0.3; stroke-linejoin: miter; stroke-linecap: square" />
   </g>
   <g id="patch_5">
    <path d="M 35.320625 61.484676  L 174.820625 61.484676  " style="fill: none; stroke: #444443; stroke-width: 0.3; stroke-linejoin: miter; stroke-linecap: square" />
   </g>
  </g>
 </g>
 <defs>
  <clipPath id="pfb8df22408">
   <rect x="35.320625" y="0.500676" width="139.5" height="60.984" />
  </clipPath>
 </defs>
</svg></g>

<g id="edge5" class="edge">
<title>node0-&gt;node2</title>
<path fill="none" stroke="#444443" stroke-width="0.3" d="M105.94,-189.7C110.81,-180.34 116.05,-170.26 121.02,-160.73" />
<polygon fill="#444443" stroke="#444443" stroke-width="0.3" points="122.16,-161.56 122.77,-157.36 119.68,-160.27 122.16,-161.56" />
<text text-anchor="start" x="117" y="-168.2" font-family="Arial" font-size="14.00" fill="#444443"> &#160;&gt;</text>
</g>

<g id="node5" class="node">
<title>leaf1</title>
<polygon fill="none" stroke="#444443" stroke-width="0" points="62,-148 0,-148 0,-87 62,-87 62,-148" />
<svg width="54px" height="53px" viewBox="0 0 72.293437 71.089856" version="1.1" preserveAspectRatio="xMinYMin meet" x="4" y="-144">
 <metadata>
  <rdf:RDF>
   <ns2:Work>
    <dc:type rdf:resource="http://purl.org/dc/dcmitype/StillImage" />
    <dc:date>2024-04-02T20:55:58.227288</dc:date>
    <dc:format>image/svg+xml</dc:format>
    <dc:creator>
     <ns2:Agent>
      <dc:title>Matplotlib v3.8.2, https://matplotlib.org/</dc:title>
     </ns2:Agent>
    </dc:creator>
   </ns2:Work>
  </rdf:RDF>
 </metadata>
 <defs>
  <style type="text/css">*{stroke-linejoin: round; stroke-linecap: butt}</style>
 </defs>
 <g id="figure_1">
  <g id="patch_1">
   <path d="M 0 71.089856  L 72.293437 71.089856  L 72.293437 -0  L 0 -0  z " style="fill: #ffffff" />
  </g>
  <g id="axes_1">
   <g id="patch_2">
    <path d="M 20.34625 45.496981  L 62.19625 45.496981  L 62.19625 1.144981  L 20.34625 1.144981  z " style="fill: #ffffff" />
   </g>
   <g id="PathCollection_1">
    <defs>
     <path id="m4491c83d54" d="M 0 1.118034  C 0.296506 1.118034 0.580908 1.000231 0.790569 0.790569  C 1.000231 0.580908 1.118034 0.296506 1.118034 0  C 1.118034 -0.296506 1.000231 -0.580908 0.790569 -0.790569  C 0.580908 -1.000231 0.296506 -1.118034 0 -1.118034  C -0.296506 -1.118034 -0.580908 -1.000231 -0.790569 -0.790569  C -1.000231 -0.580908 -1.118034 -0.296506 -1.118034 0  C -1.118034 0.296506 -1.000231 0.580908 -0.790569 0.790569  C -0.580908 1.000231 -0.296506 1.118034 0 1.118034  z " style="stroke: #4575b4; stroke-opacity: 0.7; stroke-width: 0.3" />
    </defs>
    <g clip-path="url(#p40f28a5a56)">
     <use xlink:href="#m4491c83d54" x="37.902765" y="45.496981" style="fill: #4575b4; fill-opacity: 0.7; stroke: #4575b4; stroke-opacity: 0.7; stroke-width: 0.3" />
     <use xlink:href="#m4491c83d54" x="34.025323" y="45.496981" style="fill: #4575b4; fill-opacity: 0.7; stroke: #4575b4; stroke-opacity: 0.7; stroke-width: 0.3" />
     <use xlink:href="#m4491c83d54" x="42.977042" y="45.496981" style="fill: #4575b4; fill-opacity: 0.7; stroke: #4575b4; stroke-opacity: 0.7; stroke-width: 0.3" />
     <use xlink:href="#m4491c83d54" x="43.744395" y="45.496981" style="fill: #4575b4; fill-opacity: 0.7; stroke: #4575b4; stroke-opacity: 0.7; stroke-width: 0.3" />
     <use xlink:href="#m4491c83d54" x="46.567527" y="19.916667" style="fill: #4575b4; fill-opacity: 0.7; stroke: #4575b4; stroke-opacity: 0.7; stroke-width: 0.3" />
    </g>
   </g>
   <g id="matplotlib.axis_1" />
   <g id="matplotlib.axis_2">
    <g id="ytick_1">
     <g id="line2d_1">
      <defs>
       <path id="mc3fbef1386" d="M 0 0  L -3.5 0  " style="stroke: #000000; stroke-width: 0.3" />
      </defs>
      <g>
       <use xlink:href="#mc3fbef1386" x="20.34625" y="45.496981" style="stroke: #000000; stroke-width: 0.3" />
      </g>
     </g>
     <g id="text_1">
      
      <g style="fill: #444443" transform="translate(8.8975 48.360106) scale(0.08 -0.08)">
       <defs>
        <path id="ArialMT-30" d="M 266 2259  Q 266 3072 433 3567  Q 600 4063 929 4331  Q 1259 4600 1759 4600  Q 2128 4600 2406 4451  Q 2684 4303 2865 4023  Q 3047 3744 3150 3342  Q 3253 2941 3253 2259  Q 3253 1453 3087 958  Q 2922 463 2592 192  Q 2263 -78 1759 -78  Q 1097 -78 719 397  Q 266 969 266 2259  z M 844 2259  Q 844 1131 1108 757  Q 1372 384 1759 384  Q 2147 384 2411 759  Q 2675 1134 2675 2259  Q 2675 3391 2411 3762  Q 2147 4134 1753 4134  Q 1366 4134 1134 3806  Q 844 3388 844 2259  z " transform="scale(0.015625)" />
       </defs>
       <use xlink:href="#ArialMT-30" />
      </g>
     </g>
    </g>
    <g id="ytick_2">
     <g id="line2d_2">
      <g>
       <use xlink:href="#mc3fbef1386" x="20.34625" y="2.863125" style="stroke: #000000; stroke-width: 0.3" />
      </g>
     </g>
     <g id="text_2">
      
      <g style="fill: #444443" transform="translate(-0 5.72625) scale(0.08 -0.08)">
       <defs>
        <path id="ArialMT-31" d="M 2384 0  L 1822 0  L 1822 3584  Q 1619 3391 1289 3197  Q 959 3003 697 2906  L 697 3450  Q 1169 3672 1522 3987  Q 1875 4303 2022 4600  L 2384 4600  L 2384 0  z " transform="scale(0.015625)" />
       </defs>
       <use xlink:href="#ArialMT-31" />
       <use xlink:href="#ArialMT-30" x="55.615234" />
       <use xlink:href="#ArialMT-30" x="111.230469" />
      </g>
     </g>
    </g>
   </g>
   <g id="line2d_3">
    <path d="M 20.34625 45.496981  L 73.293437 45.496981  " clip-path="url(#p40f28a5a56)" style="fill: none; stroke-dasharray: 3.7,1.6; stroke-dashoffset: 0; stroke: #444443" />
   </g>
   <g id="patch_3">
    <path d="M 20.34625 45.496981  L 20.34625 1.144981  " style="fill: none; stroke: #444443; stroke-width: 0.3; stroke-linejoin: miter; stroke-linecap: square" />
   </g>
   <g id="text_3">
    
    <g style="fill: #444443" transform="translate(11.249062 55.871981) scale(0.12 -0.12)">
     <defs>
      <path id="ArialMT-74" d="M 1650 503  L 1731 6  Q 1494 -44 1306 -44  Q 1000 -44 831 53  Q 663 150 594 308  Q 525 466 525 972  L 525 2881  L 113 2881  L 113 3319  L 525 3319  L 525 4141  L 1084 4478  L 1084 3319  L 1650 3319  L 1650 2881  L 1084 2881  L 1084 941  Q 1084 700 1114 631  Q 1144 563 1211 522  Q 1278 481 1403 481  Q 1497 481 1650 503  z " transform="scale(0.015625)" />
      <path id="ArialMT-61" d="M 2588 409  Q 2275 144 1986 34  Q 1697 -75 1366 -75  Q 819 -75 525 192  Q 231 459 231 875  Q 231 1119 342 1320  Q 453 1522 633 1644  Q 813 1766 1038 1828  Q 1203 1872 1538 1913  Q 2219 1994 2541 2106  Q 2544 2222 2544 2253  Q 2544 2597 2384 2738  Q 2169 2928 1744 2928  Q 1347 2928 1158 2789  Q 969 2650 878 2297  L 328 2372  Q 403 2725 575 2942  Q 747 3159 1072 3276  Q 1397 3394 1825 3394  Q 2250 3394 2515 3294  Q 2781 3194 2906 3042  Q 3031 2891 3081 2659  Q 3109 2516 3109 2141  L 3109 1391  Q 3109 606 3145 398  Q 3181 191 3288 0  L 2700 0  Q 2613 175 2588 409  z M 2541 1666  Q 2234 1541 1622 1453  Q 1275 1403 1131 1340  Q 988 1278 909 1158  Q 831 1038 831 891  Q 831 666 1001 516  Q 1172 366 1500 366  Q 1825 366 2078 508  Q 2331 650 2450 897  Q 2541 1088 2541 1459  L 2541 1666  z " transform="scale(0.015625)" />
      <path id="ArialMT-72" d="M 416 0  L 416 3319  L 922 3319  L 922 2816  Q 1116 3169 1280 3281  Q 1444 3394 1641 3394  Q 1925 3394 2219 3213  L 2025 2691  Q 1819 2813 1613 2813  Q 1428 2813 1281 2702  Q 1134 2591 1072 2394  Q 978 2094 978 1738  L 978 0  L 416 0  z " transform="scale(0.015625)" />
      <path id="ArialMT-67" d="M 319 -275  L 866 -356  Q 900 -609 1056 -725  Q 1266 -881 1628 -881  Q 2019 -881 2231 -725  Q 2444 -569 2519 -288  Q 2563 -116 2559 434  Q 2191 0 1641 0  Q 956 0 581 494  Q 206 988 206 1678  Q 206 2153 378 2554  Q 550 2956 876 3175  Q 1203 3394 1644 3394  Q 2231 3394 2613 2919  L 2613 3319  L 3131 3319  L 3131 450  Q 3131 -325 2973 -648  Q 2816 -972 2473 -1159  Q 2131 -1347 1631 -1347  Q 1038 -1347 672 -1080  Q 306 -813 319 -275  z M 784 1719  Q 784 1066 1043 766  Q 1303 466 1694 466  Q 2081 466 2343 764  Q 2606 1063 2606 1700  Q 2606 2309 2336 2618  Q 2066 2928 1684 2928  Q 1309 2928 1046 2623  Q 784 2319 784 1719  z " transform="scale(0.015625)" />
      <path id="ArialMT-65" d="M 2694 1069  L 3275 997  Q 3138 488 2766 206  Q 2394 -75 1816 -75  Q 1088 -75 661 373  Q 234 822 234 1631  Q 234 2469 665 2931  Q 1097 3394 1784 3394  Q 2450 3394 2872 2941  Q 3294 2488 3294 1666  Q 3294 1616 3291 1516  L 816 1516  Q 847 969 1125 678  Q 1403 388 1819 388  Q 2128 388 2347 550  Q 2566 713 2694 1069  z M 847 1978  L 2700 1978  Q 2663 2397 2488 2606  Q 2219 2931 1791 2931  Q 1403 2931 1139 2672  Q 875 2413 847 1978  z " transform="scale(0.015625)" />
      <path id="ArialMT-3d" d="M 3381 2694  L 356 2694  L 356 3219  L 3381 3219  L 3381 2694  z M 3381 1303  L 356 1303  L 356 1828  L 3381 1828  L 3381 1303  z " transform="scale(0.015625)" />
      <path id="ArialMT-2e" d="M 581 0  L 581 641  L 1222 641  L 1222 0  L 581 0  z " transform="scale(0.015625)" />
     </defs>
     <use xlink:href="#ArialMT-74" />
     <use xlink:href="#ArialMT-61" x="27.783203" />
     <use xlink:href="#ArialMT-72" x="83.398438" />
     <use xlink:href="#ArialMT-67" x="116.699219" />
     <use xlink:href="#ArialMT-65" x="172.314453" />
     <use xlink:href="#ArialMT-74" x="227.929688" />
     <use xlink:href="#ArialMT-3d" x="255.712891" />
     <use xlink:href="#ArialMT-30" x="314.111328" />
     <use xlink:href="#ArialMT-2e" x="369.726562" />
     <use xlink:href="#ArialMT-30" x="397.509766" />
     <use xlink:href="#ArialMT-30" x="453.125" />
    </g>
    
    <g style="fill: #444443" transform="translate(31.59375 68.704856) scale(0.12 -0.12)">
     <defs>
      <path id="ArialMT-6e" d="M 422 0  L 422 3319  L 928 3319  L 928 2847  Q 1294 3394 1984 3394  Q 2284 3394 2536 3286  Q 2788 3178 2913 3003  Q 3038 2828 3088 2588  Q 3119 2431 3119 2041  L 3119 0  L 2556 0  L 2556 2019  Q 2556 2363 2490 2533  Q 2425 2703 2258 2804  Q 2091 2906 1866 2906  Q 1506 2906 1245 2678  Q 984 2450 984 1813  L 984 0  L 422 0  z " transform="scale(0.015625)" />
      <path id="ArialMT-35" d="M 266 1200  L 856 1250  Q 922 819 1161 601  Q 1400 384 1738 384  Q 2144 384 2425 690  Q 2706 997 2706 1503  Q 2706 1984 2436 2262  Q 2166 2541 1728 2541  Q 1456 2541 1237 2417  Q 1019 2294 894 2097  L 366 2166  L 809 4519  L 3088 4519  L 3088 3981  L 1259 3981  L 1013 2750  Q 1425 3038 1878 3038  Q 2478 3038 2890 2622  Q 3303 2206 3303 1553  Q 3303 931 2941 478  Q 2500 -78 1738 -78  Q 1113 -78 717 272  Q 322 622 266 1200  z " transform="scale(0.015625)" />
     </defs>
     <use xlink:href="#ArialMT-6e" />
     <use xlink:href="#ArialMT-3d" x="55.615234" />
     <use xlink:href="#ArialMT-35" x="114.013672" />
    </g>
   </g>
  </g>
 </g>
 <defs>
  <clipPath id="p40f28a5a56">
   <rect x="20.34625" y="1.144981" width="41.85" height="44.352" />
  </clipPath>
 </defs>
</svg></g>

<g id="edge4" class="edge">
<title>node0-&gt;leaf1</title>
<path fill="none" stroke="#444443" stroke-width="0.3" d="M66.76,-189.7C60.59,-177.4 53.79,-163.88 47.8,-151.95" />
<polygon fill="#444443" stroke="#444443" stroke-width="0.3" points="49.05,-151.33 46.01,-148.38 46.55,-152.58 49.05,-151.33" />
<text text-anchor="start" x="61" y="-168.2" font-family="Arial" font-size="14.00" fill="#444443"> &#160;&#8804;</text>
</g>


</g>
</svg>