<?xml version="1.0" standalone="no"?>
<!DOCTYPE svg PUBLIC "-//W3C//DTD SVG 20010904//EN"
 "http://www.w3.org/TR/2001/REC-SVG-20010904/DTD/svg10.dtd">
<svg version="1.0" xmlns="http://www.w3.org/2000/svg"
 width="897.000000pt" height="897.000000pt" viewBox="0 0 897.000000 897.000000"
 preserveAspectRatio="xMidYMid meet">
<metadata>
Created by potrace 1.14, written by Peter Selinger 2001-2017
</metadata>
<g transform="translate(0.000000,897.000000) scale(0.100000,-0.100000)"
fill="#000000" stroke="none">
<path d="M4196 8488 c3 -5 10 -6 15 -3 13 9 11 12 -6 12 -8 0 -12 -4 -9 -9z"/>
<path d="M4152 8459 c2 -7 -6 -15 -17 -17 -52 -11 -115 -85 -115 -136 0 -12
-4 -26 -8 -31 -4 -6 -107 -39 -229 -73 -724 -203 -1227 -343 -1513 -423 -179
-50 -355 -99 -393 -110 l-67 -20 -39 40 c-25 25 -51 42 -72 45 -62 9 -99 13
-94 8 8 -8 -46 -32 -58 -25 -5 3 -7 1 -4 -4 4 -6 -1 -17 -10 -24 -44 -37 -55
-126 -23 -189 13 -26 16 -40 9 -40 -7 0 -10 -3 -6 -6 3 -3 -2 -15 -11 -26 -24
-28 -41 -49 -94 -120 -50 -66 -270 -352 -291 -378 -7 -8 -104 -134 -216 -280
-113 -146 -211 -272 -218 -280 -7 -8 -35 -43 -61 -76 -35 -45 -52 -60 -63 -54
-29 16 -94 14 -129 -5 -19 -11 -39 -18 -43 -17 -5 1 -6 -2 -3 -7 4 -5 1 -13
-7 -18 -21 -13 -40 -65 -41 -110 -1 -24 2 -43 6 -43 5 0 8 -7 8 -15 0 -20 48
-73 72 -81 12 -4 17 -11 13 -21 -4 -12 -2 -13 7 -5 7 6 30 8 50 6 24 -4 50 1
75 13 28 14 42 16 49 9 6 -6 67 -65 136 -132 112 -107 125 -123 121 -147 -3
-15 -8 -27 -12 -27 -3 0 -6 -18 -6 -40 0 -22 4 -40 9 -40 4 0 6 -9 3 -20 -3
-11 -1 -18 4 -14 5 3 9 1 9 -3 0 -5 15 -24 33 -43 22 -24 43 -36 67 -38 19 -2
44 -11 55 -20 18 -16 19 -16 6 1 -12 15 -11 17 15 17 28 0 48 -32 429 -681
220 -374 402 -686 404 -692 2 -7 7 -14 11 -17 13 -9 22 -50 11 -50 -6 0 -11
-6 -11 -14 0 -8 -5 -16 -12 -18 -6 -2 -13 -31 -16 -65 -3 -50 0 -68 18 -101
12 -22 33 -46 46 -52 13 -7 21 -16 19 -20 -2 -4 26 -7 63 -7 67 -1 113 18 135
54 4 7 12 13 17 13 9 0 209 -90 470 -212 47 -22 120 -56 162 -75 43 -20 75
-40 72 -44 -3 -5 1 -6 8 -4 7 3 36 -6 63 -19 28 -14 45 -25 39 -25 -7 -1 -8
-18 -2 -53 5 -29 10 -61 10 -70 1 -9 6 -14 10 -12 4 3 12 -5 18 -16 34 -63
182 -73 229 -16 11 13 17 14 30 4 14 -11 14 -11 3 4 -11 14 -11 20 5 35 10 10
19 32 19 48 3 52 4 59 11 52 3 -4 11 -3 17 2 9 7 411 126 501 148 11 3 29 7
41 10 15 3 26 -3 39 -23 24 -37 56 -63 77 -64 9 0 19 -4 22 -9 3 -4 17 -7 30
-6 62 7 91 20 128 57 28 28 44 37 56 32 9 -3 26 -8 37 -10 11 -2 47 -10 80
-19 33 -8 67 -17 75 -19 72 -18 107 -28 120 -33 8 -3 26 -8 40 -10 30 -5 28
-2 35 -43 12 -70 78 -140 131 -140 29 0 41 -17 47 -70 4 -25 13 -85 22 -135 9
-49 18 -101 20 -115 2 -14 11 -65 19 -115 8 -49 18 -110 21 -135 4 -24 9 -48
11 -52 3 -4 -5 -12 -16 -18 -71 -38 -103 -122 -79 -210 6 -22 78 -90 95 -90 9
0 13 -4 10 -9 -3 -4 6 -6 19 -3 28 5 31 -1 39 -68 3 -25 7 -56 10 -70 2 -14 9
-56 15 -95 6 -38 19 -126 30 -195 11 -69 22 -143 26 -165 12 -79 44 -301 50
-340 3 -22 7 -49 10 -60 4 -19 34 -216 40 -260 18 -148 25 -186 31 -196 6 -11
-31 -30 -41 -21 -5 4 -5 1 -1 -5 4 -7 4 -13 -1 -13 -4 0 -18 -15 -30 -33 -24
-35 -47 -127 -32 -127 5 0 9 -9 9 -19 0 -11 11 -33 25 -49 13 -16 21 -32 18
-36 -4 -4 1 -4 11 0 12 5 17 4 13 -3 -3 -5 -1 -10 6 -11 7 0 35 -5 62 -9 60
-10 112 10 146 57 12 16 25 28 28 26 3 -2 7 24 9 57 3 64 16 91 39 83 9 -4 11
-1 7 6 -5 8 -2 9 10 5 10 -4 15 -3 11 3 -6 9 8 14 28 11 4 0 7 3 7 9 0 14 59
42 72 34 6 -4 8 -3 5 3 -4 6 7 18 25 26 29 14 33 14 58 -5 58 -43 147 -42 202
2 69 54 78 185 16 241 -15 14 -16 19 -2 60 31 92 137 364 145 373 5 6 9 15 9
22 0 6 8 29 17 50 9 22 17 41 18 44 0 3 6 19 13 36 12 28 16 30 66 30 42 -1
61 5 94 27 57 40 76 85 68 160 -5 53 -4 59 14 64 11 3 20 8 20 12 0 4 15 15
33 26 17 10 37 23 42 28 11 9 374 250 884 586 246 162 326 210 332 199 5 -7 9
-9 9 -4 0 5 7 3 15 -4 22 -18 108 -21 140 -4 15 7 32 11 38 7 5 -3 7 -1 3 5
-3 6 2 17 12 24 11 7 25 31 33 53 7 22 17 45 21 51 4 6 4 14 0 18 -4 4 -7 11
-7 14 -2 22 -20 60 -37 78 l-19 22 300 479 301 479 47 -2 c28 -1 60 5 78 14
16 9 34 15 38 14 5 -1 6 1 4 5 -7 11 19 34 28 25 4 -4 5 -2 4 3 -1 6 2 26 8
46 27 92 -25 195 -109 214 -29 7 -40 37 -42 115 -1 19 -4 37 -7 40 -4 3 -10
21 -13 40 -11 69 -57 337 -71 415 -8 44 -16 91 -19 105 -2 14 -9 52 -15 85 -6
33 -13 76 -16 95 -3 19 -7 46 -10 60 -3 14 -7 39 -9 55 -9 58 -45 264 -50 287
-3 13 -8 39 -11 58 -3 19 -8 53 -12 75 -4 22 -7 56 -7 77 -1 20 -4 34 -8 31
-19 -11 -7 57 12 70 11 7 26 30 35 50 46 112 -21 226 -138 233 -47 2 -100 -15
-117 -38 -3 -4 -50 34 -103 85 -54 50 -112 105 -130 121 -17 16 -95 88 -172
160 -76 72 -168 159 -205 192 -36 34 -83 78 -105 99 -107 100 -305 286 -357
335 l-58 55 16 45 c17 47 24 111 12 104 -3 -2 -10 6 -14 18 -3 12 -16 31 -28
43 -30 31 -94 66 -101 55 -3 -5 -12 -7 -21 -3 -23 9 -101 -25 -124 -54 l-20
-25 -127 45 c-71 25 -236 84 -368 132 -132 48 -251 91 -265 95 -14 5 -144 52
-290 105 -146 53 -269 98 -275 99 -5 2 -24 9 -41 15 -31 12 -36 24 -46 119 -1
6 -3 10 -5 8 -2 -2 -19 12 -37 30 -18 18 -46 36 -62 40 -16 4 -32 12 -36 18
-5 8 -8 7 -8 -1 0 -7 -9 -13 -20 -13 -11 0 -20 5 -20 12 0 7 -5 5 -12 -5 -7
-9 -20 -17 -28 -19 -8 -2 -26 -16 -41 -32 -18 -19 -34 -27 -46 -23 -34 10
-217 77 -382 140 l-164 62 -2 35 c-3 42 -17 78 -41 106 -27 28 -92 57 -120 51
-13 -2 -21 -1 -19 4 3 4 1 11 -5 14 -6 4 -9 1 -8 -6z m-113 -253 c-4 -3 -448
-258 -539 -308 -25 -14 -89 -51 -144 -82 -74 -43 -105 -56 -123 -51 -13 3 -22
9 -19 13 4 7 -42 7 -108 0 -31 -3 -106 -67 -106 -90 0 -9 -3 -9 -10 2 -5 8
-10 10 -10 4 0 -8 -31 -12 -92 -14 -51 -1 -127 -3 -168 -5 -41 -1 -163 -6
-270 -9 -107 -4 -244 -8 -305 -11 -64 -2 -100 0 -85 5 21 6 883 248 1110 311
41 11 86 25 100 30 14 5 34 11 45 13 11 3 126 34 255 71 129 36 244 68 255 70
11 3 58 16 105 29 80 23 119 31 109 22z m479 -77 c92 -34 188 -70 215 -79 26
-9 50 -20 54 -24 3 -3 15 -6 25 -6 12 0 16 -4 12 -12 -4 -6 -3 -8 4 -4 6 3 22
2 36 -4 20 -7 26 -16 26 -39 0 -16 4 -41 9 -54 9 -22 6 -28 -30 -51 -21 -14
-42 -26 -45 -25 -4 0 -10 -3 -13 -8 -6 -10 -112 -80 -358 -236 -136 -87 -183
-107 -183 -78 0 4 -10 7 -21 8 -12 1 -26 6 -30 10 -5 5 -10 139 -12 299 l-4
291 34 12 c18 7 45 25 61 41 15 16 33 27 40 25 8 -3 89 -33 180 -66z m-404 6
l32 -16 3 -293 2 -294 -43 -23 c-29 -16 -50 -38 -64 -66 -12 -23 -23 -40 -26
-38 -4 5 6 -78 13 -105 2 -8 12 -23 22 -34 20 -23 21 -33 5 -50 -7 -7 -29 -32
-48 -56 -19 -24 -39 -48 -45 -54 -5 -6 -22 -27 -36 -46 -15 -19 -35 -44 -46
-55 -10 -11 -31 -37 -47 -57 -15 -21 -33 -35 -39 -31 -6 3 -7 1 -3 -5 4 -6 -7
-24 -24 -40 -16 -16 -30 -34 -30 -41 0 -12 -36 -15 -44 -3 -2 4 -24 9 -48 11
-23 1 -43 3 -43 4 -70 129 -189 354 -240 452 -38 72 -76 145 -86 164 -16 31
-16 36 -2 57 8 13 19 24 24 24 5 0 5 7 2 17 -4 9 -2 14 4 10 14 -9 7 111 -8
129 -6 8 -10 15 -8 17 2 1 15 8 29 16 283 164 671 381 679 381 6 0 11 5 11 11
0 6 9 9 20 6 10 -3 19 -2 18 2 -3 26 19 28 66 6z m1271 -325 c11 -4 124 -45
250 -90 127 -45 284 -101 350 -125 66 -24 217 -78 335 -120 118 -43 217 -79
220 -82 4 -4 -57 0 -175 12 -22 2 -76 7 -120 10 -44 3 -98 8 -120 10 -22 2
-71 7 -110 10 -38 3 -97 8 -130 12 -33 3 -68 6 -77 5 -10 0 -18 3 -18 7 0 5
-11 6 -25 3 -14 -2 -25 0 -25 6 0 19 -55 68 -89 80 -46 16 -73 15 -122 -4 -55
-23 -94 -78 -98 -138 -1 -25 3 -54 8 -65 13 -23 8 -28 -211 -249 -134 -134
-154 -151 -167 -138 -12 12 -12 18 -1 30 7 9 8 16 3 16 -8 0 -10 26 -4 50 0 3
3 93 6 200 3 107 8 256 11 330 4 74 7 153 6 176 -1 38 1 41 35 53 20 8 47 26
60 41 l23 28 82 -30 c46 -16 92 -33 103 -38z m-431 8 c-4 -7 -3 -8 4 -4 7 4
18 4 25 -1 11 -7 16 -9 35 -12 5 0 8 -29 6 -62 -1 -34 -5 -157 -8 -273 -6
-203 -16 -446 -19 -494 -1 -14 -16 -31 -42 -46 l-39 -24 -46 31 c-25 17 -46
34 -48 39 -2 4 -8 8 -13 8 -8 0 -56 31 -321 213 -48 33 -85 63 -82 68 3 5 -1
6 -8 4 -8 -3 -24 4 -36 15 -18 17 -21 28 -16 60 4 21 2 52 -4 69 -9 26 -8 31
14 46 13 8 24 12 24 8 0 -4 6 0 13 9 20 25 465 311 484 311 7 0 11 3 8 5 -7 7
46 42 63 42 7 0 10 -5 6 -12z m-1967 -218 c5 -38 24 -72 61 -106 l33 -32 -25
-20 c-14 -11 -26 -23 -26 -26 0 -4 -15 -22 -32 -40 -18 -18 -96 -99 -173 -181
-77 -81 -192 -203 -256 -269 -64 -67 -147 -154 -186 -194 l-69 -73 -27 32
c-15 18 -27 30 -27 26 0 -4 -11 0 -25 9 -14 9 -25 14 -25 10 0 -3 -11 -1 -25
4 -14 5 -25 6 -25 1 0 -14 -52 -7 -61 9 -5 8 -29 58 -53 110 -24 52 -67 144
-95 204 -28 59 -51 110 -51 112 0 1 -25 55 -55 119 -30 64 -56 121 -58 128 -1
7 -6 15 -11 18 -8 7 32 91 48 98 4 2 3 7 -3 10 -8 5 -8 12 2 24 12 16 2 16
472 32 61 2 209 7 330 10 121 4 221 7 222 8 1 1 32 2 69 2 64 0 67 -1 71 -25z
m254 -193 c11 -21 17 -43 13 -49 -4 -6 -3 -8 3 -5 5 3 25 -24 45 -61 19 -37
63 -121 98 -187 35 -66 76 -144 91 -174 16 -29 26 -58 22 -64 -3 -5 -2 -7 4
-4 6 4 15 -4 21 -18 9 -20 7 -28 -24 -60 -19 -20 -34 -42 -35 -48 0 -7 -3 -21
-5 -32 -9 -40 -11 -65 -5 -65 3 0 11 -16 17 -35 10 -33 9 -36 -35 -75 -25 -23
-91 -85 -146 -138 -56 -53 -136 -130 -179 -169 l-77 -73 -32 14 c-36 15 -105
13 -137 -4 -16 -9 -28 -5 -67 23 -27 18 -79 55 -118 82 -132 91 -200 139 -205
145 -3 4 -12 10 -20 13 -8 4 -42 27 -75 51 -62 45 -61 44 -53 111 2 12 28 48
60 80 31 33 71 76 88 95 18 19 101 107 184 194 83 88 162 172 176 186 125 133
243 249 251 245 5 -4 6 0 4 7 -7 18 44 65 75 70 28 4 32 0 61 -55z m-1569 10
l56 2 15 -44 c9 -24 12 -47 9 -51 -4 -4 -2 -4 4 -1 7 4 33 -43 69 -121 32 -70
78 -167 101 -217 23 -49 62 -135 86 -189 l45 -99 -23 -41 c-44 -77 -26 -164
45 -217 l31 -23 -5 -140 c-3 -78 -7 -215 -10 -306 -3 -91 -8 -226 -10 -300
-19 -596 -24 -731 -30 -715 -2 6 -72 219 -155 475 -84 256 -184 561 -222 679
-39 118 -71 219 -73 225 -1 6 -5 18 -8 26 -3 8 -17 49 -30 90 l-24 75 33 28
c19 16 34 35 34 43 0 8 4 14 8 14 5 0 9 23 11 51 2 59 -30 126 -73 149 -14 7
-26 16 -26 19 0 6 -70 7 -115 3 -11 -1 -36 -17 -56 -35 -52 -48 -66 -89 -57
-164 2 -12 -1 -22 -6 -22 -5 1 -12 -4 -15 -9 -3 -5 -26 -22 -51 -37 -85 -53
-502 -305 -506 -305 -2 0 -23 -13 -46 -29 -24 -16 -44 -28 -46 -26 -2 2 24 39
58 82 75 95 74 94 251 323 79 102 148 191 154 197 5 7 116 150 245 317 201
260 238 304 255 298 11 -3 46 -6 77 -5z m4273 -32 c39 -3 90 -8 115 -10 25 -3
81 -7 125 -10 44 -3 96 -8 115 -10 32 -4 141 -14 215 -20 17 -2 32 -4 35 -5 3
-1 16 -1 29 0 18 1 22 -2 18 -15 -4 -9 -3 -14 2 -11 5 3 11 -5 15 -17 8 -34
44 -77 75 -89 14 -6 48 -12 75 -14 l50 -2 54 -103 c112 -215 212 -417 212
-428 0 -6 4 -11 8 -11 9 0 36 -59 35 -77 0 -7 3 -11 7 -8 21 13 15 -25 -8 -51
-27 -29 -35 -49 -36 -94 -1 -21 -12 -30 -71 -56 -60 -26 -621 -278 -711 -319
-27 -13 -36 -13 -73 2 -29 11 -41 22 -42 37 -1 27 -5 69 -13 131 -3 28 -9 77
-12 110 -7 67 -9 84 -19 171 l-7 61 40 23 c30 17 46 36 61 71 12 26 18 55 15
63 -4 9 -1 16 6 16 10 0 10 3 0 15 -7 8 -10 22 -6 30 3 9 2 13 -3 10 -5 -3
-12 4 -16 15 -13 42 -132 106 -166 89 -8 -4 -31 -15 -52 -25 -24 -12 -48 -35
-63 -61 -22 -37 -29 -41 -57 -38 -18 2 -75 6 -127 10 -52 4 -111 8 -130 10
-19 2 -73 6 -120 10 -47 3 -107 8 -135 11 -27 2 -78 6 -113 8 -34 2 -62 7 -62
11 1 3 -7 13 -15 22 -9 9 -14 24 -12 35 3 10 2 16 -3 13 -4 -2 -15 4 -24 14
-17 19 -11 26 156 195 163 165 175 175 194 162 28 -20 87 -30 129 -22 42 8
118 80 121 114 1 6 2 21 3 33 1 19 6 20 59 15 31 -3 89 -8 127 -11z m-1133
-495 c-1 -6 2 -9 8 -5 13 8 72 -34 64 -46 -3 -5 -11 -6 -17 -2 -9 5 -9 3 -1
-8 6 -8 10 -25 7 -39 -4 -25 34 -131 46 -127 3 1 17 -6 30 -15 17 -12 22 -22
16 -35 -5 -10 -7 -22 -6 -27 1 -5 -5 -41 -13 -80 -9 -39 -18 -82 -20 -96 -3
-14 -14 -70 -26 -125 -26 -125 -28 -137 -29 -152 -1 -8 -17 -12 -49 -12 -46 1
-49 4 -65 38 -59 133 -131 292 -147 326 -11 22 -78 173 -150 335 -72 162 -137
309 -145 325 -29 65 -34 82 -23 93 13 13 525 -329 520 -348z m-697 263 c-3
-27 -10 -77 -15 -113 -12 -84 -20 -148 -24 -185 -4 -29 -33 -244 -41 -295 -2
-14 -6 -52 -10 -85 -10 -96 -15 -104 -55 -81 -8 5 -12 5 -7 1 4 -5 -7 -14 -25
-20 -32 -10 -34 -9 -63 30 -16 22 -32 42 -35 45 -8 8 -65 83 -74 97 -4 7 1 27
10 45 24 45 27 101 9 144 -8 21 -12 42 -7 48 16 22 271 332 301 366 17 19 31
38 31 43 0 4 3 7 6 7 3 0 3 -21 -1 -47z m210 -170 c54 -120 156 -348 227 -508
72 -159 136 -303 143 -320 22 -48 21 -58 -8 -96 -15 -20 -27 -41 -27 -47 0
-11 -94 22 -114 40 -6 4 -16 8 -23 8 -10 0 -169 64 -253 102 -14 6 -31 13 -39
14 -8 1 -17 8 -21 14 -4 7 -10 11 -14 11 -23 -3 -36 0 -32 8 4 5 2 11 -4 13
-6 2 -11 22 -13 45 -1 23 -4 41 -7 40 -3 -1 -20 14 -38 32 -29 29 -33 39 -28
70 3 20 8 63 12 96 3 33 7 67 9 75 2 8 7 41 10 73 4 32 8 66 10 75 2 10 6 45
10 77 4 33 9 67 10 75 2 9 6 43 10 75 4 33 9 67 10 75 2 9 6 43 10 75 10 86
13 95 39 95 21 0 35 -26 121 -217z m2660 102 c17 -14 257 -240 323 -303 30
-28 80 -75 111 -103 58 -54 273 -255 396 -370 38 -37 85 -81 104 -98 19 -17
32 -33 30 -35 -2 -2 -42 11 -89 28 -47 18 -151 56 -232 86 -81 30 -145 57
-142 62 3 4 -1 5 -9 2 -7 -2 -26 0 -40 5 -23 9 -27 16 -27 52 0 67 -57 134
-122 145 -24 4 -35 11 -31 18 3 6 0 6 -8 -1 -26 -25 -53 -14 -74 30 -12 23
-83 164 -158 312 l-138 270 47 -45 c26 -25 53 -49 59 -55z m-1669 -340 c43 -3
95 -8 114 -10 19 -2 80 -7 135 -10 55 -4 111 -8 125 -10 14 -2 66 -7 115 -10
50 -3 97 -8 105 -11 8 -3 25 -27 38 -54 13 -28 36 -57 52 -67 16 -9 27 -20 25
-23 -3 -4 7 -5 21 -2 30 5 49 -15 32 -35 -6 -8 -7 -13 -1 -13 9 0 13 -23 30
-190 3 -30 11 -101 17 -158 l13 -102 -41 -23 c-31 -16 -47 -35 -66 -75 l-25
-54 -170 7 c-278 10 -397 18 -445 30 -3 0 -26 4 -51 8 -61 10 -78 13 -184 32
-49 9 -108 18 -130 21 -22 3 -44 12 -50 21 -5 9 -20 29 -33 44 -19 23 -22 35
-16 61 10 42 11 46 18 88 3 19 8 46 11 60 35 174 44 217 49 235 1 6 6 32 11
58 5 36 13 51 29 57 11 4 24 6 28 3 4 -2 27 9 50 24 24 15 47 26 51 25 5 -1 6
2 2 7 -10 17 40 86 55 76 4 -2 42 -7 86 -10z m-3950 -203 c8 -5 -24 -95 -103
-287 -62 -154 -120 -293 -127 -310 -8 -16 -28 -64 -45 -106 l-32 -77 -39 0
c-21 0 -52 -8 -68 -16 l-30 -15 -140 136 c-119 114 -140 138 -132 154 6 10 10
27 10 39 0 14 4 19 13 14 8 -5 8 -2 -2 9 -7 9 -10 17 -7 17 4 0 2 9 -4 20 -9
16 -6 22 17 37 66 44 659 391 668 392 6 0 15 -3 21 -7z m2222 -25 c12 -2 24
-6 28 -9 3 -4 25 -1 49 7 l44 13 58 -79 c32 -44 66 -89 75 -100 16 -20 16 -23
1 -53 -9 -17 -16 -52 -16 -78 0 -47 -1 -48 -36 -54 -20 -4 -40 -9 -46 -12 -5
-3 -16 -7 -25 -8 -8 -1 -103 -26 -210 -54 -107 -28 -204 -53 -214 -55 -10 -3
-33 -9 -51 -15 -18 -6 -37 -10 -41 -9 -5 1 -22 -3 -37 -9 -40 -17 -44 -15 -45
17 0 16 -7 43 -16 59 l-15 29 157 150 c276 265 296 282 308 273 6 -5 20 -11
32 -13z m-2060 -129 c137 -414 465 -1425 467 -1438 0 -3 4 -11 9 -18 10 -16
-22 -54 -38 -45 -6 3 -8 3 -4 -1 3 -4 0 -23 -8 -41 -34 -83 2 -192 73 -217
l32 -12 -4 -75 c-3 -42 -7 -101 -10 -131 -3 -30 -7 -82 -10 -115 -2 -33 -7
-96 -11 -140 -4 -44 -7 -87 -6 -96 0 -11 -8 -16 -26 -15 -19 1 -27 6 -26 18 1
10 -2 16 -6 13 -11 -7 -33 41 -25 54 3 6 1 10 -5 9 -9 -2 -600 981 -641 1067
-5 11 -23 41 -39 67 -58 93 -89 156 -82 163 4 5 2 5 -4 2 -6 -4 -16 4 -22 17
-8 19 -7 25 9 36 22 16 45 107 36 142 -4 14 -17 41 -31 60 -13 20 -21 39 -18
43 4 4 2 5 -5 3 -12 -3 -13 5 -5 35 2 9 9 17 14 17 5 0 7 4 3 9 -3 5 1 25 9
43 9 18 67 159 130 313 63 154 122 297 131 318 13 30 20 37 44 37 27 0 30 -4
69 -122z m1079 -132 c202 -141 211 -149 203 -172 -17 -43 -20 -78 -10 -114 5
-19 8 -38 7 -41 -3 -9 57 -57 85 -68 l25 -9 -3 -164 c-2 -90 -4 -170 -5 -178
0 -9 -19 -26 -41 -39 -54 -31 -89 -106 -76 -165 5 -23 9 -46 10 -53 1 -7 4
-10 8 -8 4 2 13 -7 20 -20 7 -14 19 -25 27 -25 7 0 13 -4 13 -10 0 -5 9 -10
19 -10 11 0 22 -4 25 -8 8 -14 -19 -104 -28 -95 -5 4 -6 3 -2 -4 4 -7 -16 -97
-45 -200 -28 -104 -56 -207 -62 -230 -9 -35 -15 -43 -34 -43 -33 0 -34 0 -75
-21 -21 -11 -47 -32 -59 -48 l-21 -29 -65 39 c-35 22 -105 66 -155 99 -50 33
-95 60 -101 60 -5 0 -7 17 -3 43 8 51 -14 120 -47 150 -12 11 -41 28 -65 39
-23 10 -40 23 -37 28 3 5 8 98 10 207 5 195 9 332 19 608 6 160 18 493 20 575
2 50 4 55 24 53 12 -2 22 1 22 5 0 4 15 14 34 20 19 7 40 19 46 27 11 13 19
11 59 -18 25 -18 141 -99 258 -181z m4507 32 c-3 -5 -2 -7 3 -6 12 4 93 -53
88 -62 -3 -4 -7 -29 -10 -56 -7 -57 -35 -287 -40 -324 -2 -14 -7 -54 -10 -90
l-7 -66 -46 2 c-50 2 -86 -12 -116 -45 -20 -22 -53 -30 -40 -9 4 7 3 8 -5 4
-10 -7 -81 16 -444 143 -43 15 -74 31 -70 36 4 4 3 5 -3 2 -7 -4 -27 -1 -45 6
-31 11 -34 16 -34 52 -1 22 -4 54 -8 70 -9 36 -49 14 440 235 288 130 329 146
340 133 7 -9 10 -20 7 -25z m331 6 c25 -5 460 -166 465 -172 3 -4 16 -8 29
-10 31 -3 31 -2 34 -45 4 -47 37 -115 60 -123 9 -3 17 -10 17 -15 0 -6 -5 -7
-12 -3 -7 4 -8 3 -4 -4 4 -7 -3 -58 -15 -114 -11 -57 -23 -114 -25 -127 -3
-12 -12 -53 -20 -90 -20 -82 -22 -93 -23 -106 -1 -6 -15 -12 -33 -13 -70 -6
-142 -68 -150 -132 -2 -14 -7 -31 -12 -38 -8 -13 -73 -43 -90 -41 -5 0 -12 -4
-15 -9 -3 -5 -139 -69 -301 -142 -162 -73 -314 -141 -337 -151 -47 -21 -59
-23 -68 -10 -5 8 15 70 44 136 5 11 19 47 32 80 12 33 25 62 28 65 3 3 8 14
10 25 1 11 8 29 14 40 12 21 14 27 16 48 0 7 20 18 44 25 43 12 97 51 97 71 0
6 4 11 10 11 5 0 9 3 9 8 -5 28 2 52 14 46 8 -5 7 -2 -2 9 -8 10 -11 20 -8 23
9 9 -24 87 -45 105 -20 18 -19 32 7 219 8 58 17 133 20 167 7 62 12 98 15 98
1 0 3 18 4 40 2 22 4 47 5 55 0 9 10 16 21 17 27 2 81 36 99 62 12 16 18 18
35 8 12 -6 26 -12 31 -13z m-3272 -156 c12 -7 27 -13 32 -14 6 -1 28 -10 50
-20 22 -10 45 -19 50 -20 12 -3 248 -100 292 -119 17 -8 35 -15 40 -15 6 0 15
-17 21 -39 7 -21 23 -49 36 -62 13 -13 22 -33 20 -44 -3 -23 -31 -117 -45
-155 -5 -14 -12 -37 -14 -51 -11 -59 -32 -104 -51 -105 -28 -3 -73 -12 -82
-18 -5 -3 -16 4 -25 15 -9 10 -15 19 -12 19 2 0 -7 12 -21 27 -13 14 -22 28
-20 31 3 2 -1 11 -7 18 -7 8 -17 20 -22 27 -6 7 -44 64 -85 127 -40 63 -106
165 -145 225 -39 61 -75 115 -78 121 -6 10 27 64 39 64 3 0 15 -5 27 -12z
m-409 -55 c-11 -10 -46 -40 -79 -68 -33 -27 -62 -52 -65 -55 -3 -4 -129 -109
-280 -236 -151 -126 -278 -233 -281 -238 -4 -4 -22 -5 -40 0 -19 4 -37 7 -41
6 -4 -1 -6 65 -6 148 1 93 5 147 11 143 6 -4 7 -1 2 8 -24 37 -4 69 43 69 4 0
23 15 42 33 31 29 60 38 280 96 135 35 281 74 325 86 102 29 115 30 89 8z
m126 2 c0 6 6 3 13 -6 9 -12 29 -15 78 -15 l67 1 43 -65 c40 -59 246 -374 269
-410 5 -8 21 -32 35 -53 14 -21 25 -42 25 -47 0 -6 4 -10 8 -10 5 0 14 -11 20
-24 9 -20 8 -29 -6 -46 -16 -20 -28 -21 -252 -25 -222 -4 -414 -11 -560 -20
-127 -7 -326 -17 -417 -20 -87 -3 -93 -2 -98 19 -4 11 -11 31 -18 44 -13 27
-22 18 202 207 250 211 374 315 411 347 19 16 50 42 68 56 19 15 48 39 65 55
23 20 33 24 39 15 4 -7 8 -8 8 -3z m1215 -159 c44 -8 97 -17 117 -20 21 -3 77
-13 125 -21 116 -20 142 -23 318 -31 322 -14 309 -12 260 -28 -66 -21 -908
-317 -930 -326 -33 -15 -256 -90 -267 -90 -6 0 -7 7 -4 16 3 8 2 13 -3 10 -4
-3 -16 3 -25 13 -15 17 -16 24 -5 63 7 23 13 45 14 48 17 78 29 109 38 103 6
-3 7 -1 3 5 -4 7 0 38 9 70 l16 58 45 2 c71 4 92 7 91 12 -1 3 10 19 26 35 15
16 32 45 38 62 12 38 18 39 134 19z m3070 -36 c6 -33 14 -80 34 -190 11 -63
23 -131 26 -150 4 -19 13 -73 21 -120 8 -47 17 -96 19 -110 13 -81 47 -272 51
-292 6 -30 6 -30 58 -343 26 -148 48 -281 51 -295 2 -14 -85 155 -194 374
-109 220 -198 404 -197 410 1 6 10 23 20 38 43 65 29 164 -32 219 -19 17 -30
34 -26 38 5 3 10 15 10 26 1 11 5 36 8 55 10 48 65 310 71 337 4 17 12 21 42
20 24 -1 37 -7 38 -17z m-2123 -117 c33 -32 34 -35 9 -87 -10 -23 -26 -61 -36
-86 -16 -44 -33 -85 -60 -145 -7 -16 -25 -60 -41 -98 -26 -64 -29 -67 -58 -65
-18 1 -53 -8 -79 -21 -46 -22 -92 -24 -197 -6 -14 2 -54 7 -90 10 -36 3 -76 8
-90 10 -14 2 -52 6 -85 10 -33 3 -71 8 -85 10 -14 2 -52 6 -85 10 -33 3 -71 8
-85 10 -14 2 -52 7 -85 10 -100 10 -139 15 -160 19 -11 3 -27 5 -35 6 -13 1
133 55 470 172 63 22 124 44 135 49 11 4 119 43 240 85 185 64 237 82 295 99
3 1 16 6 30 12 32 13 54 21 59 22 3 1 18 -11 33 -26z m491 -73 c128 -44 241
-84 252 -89 11 -5 38 -15 60 -22 22 -6 45 -15 51 -20 6 -5 13 -7 15 -4 3 2 5
-16 6 -40 1 -25 -2 -47 -6 -49 -17 -11 -861 -237 -906 -243 -23 -3 -36 2 -50
18 -14 16 -16 23 -7 26 6 3 12 13 12 24 0 11 4 27 9 37 5 9 19 42 31 72 12 30
28 69 35 85 7 17 31 73 52 125 l40 95 44 6 c54 7 91 22 108 43 7 9 15 16 18
16 2 0 108 -36 236 -80z m433 -291 c3 -6 19 -18 34 -27 l27 -17 -39 -100 c-21
-55 -43 -109 -48 -120 -5 -11 -21 -52 -36 -91 l-27 -72 -56 -6 c-31 -4 -64 -7
-73 -8 -9 -1 -15 -5 -13 -9 3 -3 -9 -18 -24 -33 -44 -42 -53 -100 -26 -175 13
-37 13 -38 -44 -112 -225 -292 -306 -396 -321 -411 -10 -9 -20 -22 -22 -28 -2
-7 -15 -7 -43 3 -26 9 -53 11 -75 6 -19 -4 -37 -6 -39 -3 -3 2 -48 178 -101
391 -86 346 -94 389 -81 405 8 9 18 15 23 12 5 -3 8 -2 7 3 -1 4 3 21 10 37 6
16 13 39 14 50 1 12 7 24 12 28 6 5 6 8 -2 8 -6 0 -10 8 -9 17 2 12 22 22 67
34 35 9 165 44 289 77 276 74 422 113 435 116 6 2 30 8 54 15 23 7 50 10 58 7
8 -3 11 -1 8 4 -3 6 3 10 14 10 11 0 23 -5 27 -11z m-2549 -121 c6 -23 9 -46
7 -52 -3 -6 -33 -32 -67 -57 -34 -26 -134 -101 -221 -168 -88 -66 -163 -121
-167 -121 -3 0 -13 7 -20 16 -23 28 -124 60 -135 42 -3 -5 -12 -7 -19 -4 -8 3
-15 2 -17 -2 -2 -4 -18 -15 -35 -25 -34 -18 -54 -15 -93 18 -8 7 -35 24 -60
37 -70 39 -422 257 -445 276 -5 4 -19 11 -29 15 -31 12 -15 16 80 22 49 3 125
7 169 10 155 9 241 14 370 21 72 3 131 7 132 8 1 0 122 2 270 3 l269 2 11 -41z
m496 -3 c21 -3 74 -9 182 -20 28 -3 64 -7 80 -10 17 -2 57 -7 90 -10 33 -4 71
-8 85 -10 14 -2 57 -7 95 -11 39 -3 79 -8 90 -11 11 -2 49 -6 85 -10 36 -3 67
-7 69 -9 2 -2 4 -36 5 -75 1 -47 6 -74 14 -77 16 -5 -4 -42 -23 -42 -8 0 -15
-4 -15 -9 0 -5 -26 -31 -58 -57 -56 -47 -434 -371 -556 -478 -69 -59 -96 -79
-101 -75 -3 4 -15 38 -120 334 -36 105 -86 244 -109 310 -59 166 -61 172 -35
180 11 4 18 9 15 13 -3 3 1 13 10 23 8 9 16 27 17 39 1 22 4 22 79 15 43 -3
89 -8 101 -10z m2781 -182 c-37 -70 -76 -143 -86 -161 -10 -19 -76 -140 -145
-270 -77 -145 -182 -319 -267 -448 l-141 -211 -30 19 c-16 10 -41 18 -54 18
-21 0 -22 2 -10 17 10 11 10 14 2 9 -9 -5 -13 1 -14 21 -1 37 -11 120 -24 213
-2 14 -7 54 -10 90 -4 36 -9 74 -11 84 -2 11 -6 56 -10 101 l-6 82 28 12 c58
23 103 137 75 189 -9 17 -8 22 10 27 11 4 62 26 112 49 119 55 162 75 277 126
130 58 187 84 240 108 25 12 52 22 60 24 8 2 17 5 20 8 10 10 45 28 49 24 2
-1 -27 -60 -65 -131z m-4603 105 c13 -7 126 -76 252 -153 125 -77 235 -144
245 -150 88 -50 92 -55 90 -101 l-1 -44 -56 -17 c-31 -9 -58 -17 -61 -18 -3 0
-21 -6 -40 -12 -140 -46 -453 -145 -467 -148 -10 -2 -52 -15 -93 -28 l-75 -25
-25 26 c-14 15 -24 30 -23 34 2 4 -4 5 -12 2 -9 -4 -15 0 -15 10 0 9 3 16 8
16 4 0 8 12 8 28 1 15 23 104 49 197 26 94 54 197 63 230 8 33 18 62 21 65 3
3 6 11 7 18 4 46 3 45 21 31 11 -10 14 -10 9 -1 -4 7 -2 12 6 12 7 0 24 9 38
20 30 23 23 22 51 8z m1490 -46 l36 3 26 -75 c14 -41 49 -140 77 -220 97 -272
161 -455 164 -467 1 -7 5 -16 9 -19 14 -15 6 -34 -13 -34 -12 0 -34 -7 -51
-16 -29 -15 -32 -14 -162 52 -73 37 -168 86 -212 109 -133 70 -335 176 -387
202 -26 13 -46 28 -43 34 3 5 0 6 -8 3 -12 -4 -15 6 -16 50 0 47 3 58 22 68
12 7 25 11 30 10 4 -1 6 2 5 7 -2 4 20 25 47 46 245 188 297 225 305 220 6 -4
9 -2 8 4 -2 6 10 21 26 34 29 23 29 23 65 5 21 -11 51 -18 72 -16z m3252 1
c13 -13 36 -18 82 -18 l63 0 201 -408 c191 -387 200 -408 184 -427 -9 -10 -21
-16 -27 -13 -6 3 -8 3 -4 -2 4 -4 1 -20 -8 -36 -16 -31 -25 -119 -12 -119 17
0 7 -30 -14 -45 -115 -84 -215 -156 -223 -163 -5 -4 -49 -36 -98 -70 -80 -58
-88 -62 -103 -47 -51 51 -149 56 -208 11 -19 -14 -38 -35 -41 -46 -5 -14 -13
-19 -28 -15 -154 34 -255 57 -268 60 -47 10 -158 38 -185 46 -26 8 -32 17 -41
54 -9 42 -8 47 23 92 18 26 38 53 44 60 5 7 10 14 10 17 0 3 45 73 101 156 87
131 159 258 341 600 22 41 53 98 68 125 15 28 44 82 65 120 48 90 45 85 52 85
4 0 15 -8 26 -17z m-2006 -200 c27 -7 45 -7 51 -1 10 10 17 -2 26 -52 3 -14
20 -86 40 -160 19 -74 37 -148 41 -165 3 -16 27 -117 54 -223 46 -183 47 -193
31 -212 -15 -18 -70 -26 -70 -10 0 3 -21 5 -48 6 -45 1 -148 10 -222 19 -19 2
-64 7 -100 10 -64 6 -81 8 -190 21 -30 3 -71 7 -90 9 -19 2 -64 6 -100 10 -36
5 -81 9 -100 11 -19 1 -37 3 -40 4 -3 1 -9 2 -14 1 -23 -4 -48 12 -43 30 3 10
0 17 -6 16 -6 -1 -16 9 -24 23 -7 14 -13 21 -13 17 0 -5 -5 -5 -11 -2 -7 5 -4
13 8 24 14 13 408 352 658 566 88 76 100 83 110 76 6 -5 29 -13 52 -18z
m-2061 -323 c22 -11 48 -20 57 -20 9 0 17 -6 18 -12 0 -7 2 -20 4 -28 2 -8 6
-33 10 -55 3 -22 8 -47 10 -55 2 -8 7 -31 10 -50 6 -36 22 -129 30 -177 6 -34
45 -267 52 -308 3 -16 10 -61 18 -99 12 -64 11 -69 -6 -73 -11 -3 -19 -10 -19
-15 0 -6 -7 -7 -16 -4 -8 3 -12 2 -9 -3 17 -29 -27 -13 -136 50 -68 40 -239
138 -379 219 -140 81 -271 157 -291 168 -20 11 -67 39 -105 62 -38 24 -85 51
-104 62 -19 11 -39 22 -43 25 -4 3 -1 15 7 28 9 13 18 40 20 60 3 21 6 38 8
40 3 3 367 120 593 190 83 26 161 50 175 54 20 7 28 4 40 -16 8 -13 33 -32 56
-43z m256 17 c24 -13 133 -70 243 -127 232 -119 368 -191 375 -199 3 -3 12 -7
20 -9 8 -2 35 -15 58 -29 32 -18 41 -28 33 -36 -6 -6 -11 -19 -11 -30 0 -24
-26 -50 -41 -41 -7 4 -9 3 -6 -3 9 -14 -29 -47 -44 -37 -7 4 -10 3 -5 -4 3 -6
-23 -32 -61 -60 -110 -81 -345 -259 -382 -289 -53 -44 -60 -46 -94 -32 -18 8
-38 14 -45 16 -19 2 -20 4 -27 43 -3 19 -21 123 -40 230 -19 107 -37 209 -39
225 -3 17 -12 71 -20 120 -9 50 -18 108 -21 130 -4 22 -10 55 -15 73 -6 24 -5
32 5 32 7 0 23 11 36 25 29 30 29 30 81 2z m2777 3 c21 0 29 -16 36 -76 3 -22
7 -52 9 -69 3 -16 8 -57 11 -90 3 -33 8 -71 10 -85 9 -53 18 -147 19 -192 1
-27 3 -48 6 -48 3 0 7 -11 8 -25 1 -18 -6 -28 -26 -39 -15 -8 -35 -23 -45 -33
-18 -21 -9 -22 -162 12 -285 63 -306 69 -302 87 3 10 1 16 -3 13 -5 -3 -12 4
-15 16 -5 16 18 53 109 172 64 84 125 163 136 177 32 40 113 144 134 172 15
21 24 25 37 17 10 -5 27 -9 38 -9z m-4514 -42 c36 -23 65 -44 65 -48 0 -4 6
-7 13 -7 18 0 97 -54 97 -66 0 -6 3 -7 7 -4 3 4 12 2 20 -4 7 -7 28 -19 46
-29 24 -13 33 -26 38 -52 3 -18 9 -40 14 -48 6 -10 4 -12 -9 -7 -9 4 -15 3
-12 -2 3 -5 -40 -45 -97 -90 -116 -93 -106 -85 -209 -169 -42 -34 -80 -62 -84
-62 -4 0 -13 -8 -20 -17 -13 -17 -15 -17 -32 2 -9 11 -23 20 -29 21 -7 1 -17
2 -22 3 -5 0 -7 16 -5 34 2 17 6 75 9 127 3 52 8 111 10 130 2 19 7 76 11 125
6 80 10 126 13 146 2 15 34 19 49 7 13 -11 14 -11 8 0 -7 12 28 51 47 52 4 0
37 -19 72 -42z m365 -336 c0 2 21 -1 48 -7 37 -10 54 -10 83 0 33 12 61 7 79
-14 3 -4 31 -20 62 -36 31 -17 233 -133 450 -258 476 -277 432 -251 438 -257
3 -3 21 -13 41 -23 31 -16 35 -22 31 -48 -4 -24 -9 -30 -23 -26 -11 3 -17 2
-14 -2 2 -5 -123 -44 -278 -89 l-282 -80 -28 34 c-16 19 -35 34 -43 34 -8 0
-14 4 -14 8 0 9 -7 10 -63 13 -37 1 -95 -20 -119 -45 -18 -17 -52 -11 -41 8 3
6 3 8 -1 4 -12 -10 -57 9 -351 145 -480 222 -455 208 -434 233 7 8 6 14 -1 19
-5 3 -10 19 -10 34 0 23 13 39 70 85 39 32 75 54 80 51 6 -4 9 -2 8 4 -2 5 42
46 97 90 55 44 107 87 116 96 9 8 19 15 22 15 4 0 17 10 29 22 20 20 22 20 35
3 7 -11 13 -16 13 -13z m2498 -112 c24 0 31 -4 26 -12 -6 -10 -5 -10 8 -1 8 7
17 11 19 9 2 -2 40 -7 84 -10 44 -4 87 -9 95 -11 8 -2 51 -7 94 -10 43 -4 86
-8 95 -10 9 -2 54 -6 100 -10 47 -4 94 -9 105 -11 11 -2 50 -6 86 -9 36 -3 74
-7 85 -10 11 -2 37 -4 58 -4 36 -1 37 -2 37 -36 0 -20 7 -49 15 -65 9 -17 12
-30 8 -30 -4 0 10 -12 32 -27 22 -14 42 -29 45 -33 3 -3 15 -5 28 -4 12 1 25
-3 28 -8 3 -5 12 -4 20 3 7 6 21 9 29 5 8 -3 15 -2 15 2 0 4 14 13 31 21 23
10 38 28 53 63 20 46 23 48 51 43 17 -4 41 -9 55 -11 62 -12 322 -73 325 -76
1 -2 5 -28 8 -59 l5 -57 -50 -28 c-27 -16 -57 -34 -66 -39 -29 -17 -385 -232
-422 -254 -19 -11 -42 -24 -50 -28 -8 -3 -32 -17 -53 -30 -21 -13 -43 -21 -49
-17 -7 4 -8 3 -4 -4 4 -6 -5 -17 -21 -26 -23 -12 -32 -12 -53 -1 -15 8 -47 12
-75 10 l-49 -3 -350 260 c-193 142 -362 267 -375 276 -38 28 -126 96 -131 102
-3 4 -13 10 -23 13 -17 7 -17 9 7 38 14 17 26 34 26 39 0 5 5 21 10 35 8 22
15 26 33 21 12 -3 37 -6 55 -6z m-390 -60 c7 -12 10 -26 6 -32 -4 -7 -3 -8 4
-4 7 4 12 3 12 -2 0 -6 20 -18 44 -28 24 -10 43 -23 42 -29 -2 -5 -8 -35 -14
-65 -6 -30 -14 -66 -16 -80 -3 -14 -7 -34 -10 -45 -2 -11 -12 -56 -22 -100 -9
-44 -20 -93 -23 -109 -5 -23 -13 -30 -35 -33 -16 -2 -43 -12 -60 -21 -17 -9
-34 -15 -39 -14 -4 1 -6 -1 -5 -5 1 -5 -3 -18 -10 -30 -9 -16 -19 -20 -39 -17
-15 3 -30 7 -33 9 -4 2 -22 7 -40 10 -18 3 -38 9 -44 13 -6 3 -22 8 -35 10
-59 8 -226 61 -223 71 1 6 -2 11 -8 11 -5 0 -10 9 -10 21 0 11 -5 29 -10 40
-12 21 -16 16 90 98 36 28 70 54 75 59 152 119 308 231 316 227 5 -4 8 -2 7 4
-3 9 49 60 62 61 3 0 11 -9 18 -20z m3601 -72 c-6 -13 -21 -36 -34 -53 -12
-16 -24 -35 -26 -41 -2 -6 -67 -111 -144 -232 -77 -122 -144 -230 -150 -240
-5 -9 -44 -70 -85 -135 -41 -65 -80 -127 -86 -138 -6 -11 -21 -31 -33 -45 -11
-13 -18 -24 -15 -24 4 0 1 -7 -6 -15 -31 -37 -32 -16 -17 360 1 37 6 50 17 50
31 1 92 39 118 72 21 28 26 47 27 97 2 58 4 62 37 86 61 44 190 138 288 209
102 75 129 87 109 49z m-3349 -62 c30 -23 59 -44 65 -49 5 -4 125 -92 265
-195 400 -294 429 -316 423 -325 -2 -4 -1 -6 4 -5 5 2 25 -8 45 -21 l36 -25
-22 -33 c-11 -18 -27 -33 -34 -33 -7 0 -67 9 -135 20 -67 10 -169 26 -227 35
-58 8 -116 17 -130 20 -32 5 -196 32 -235 39 -16 2 -48 7 -70 11 -58 9 -68 13
-61 30 3 8 1 17 -5 21 -6 3 -8 11 -6 17 2 6 -13 27 -32 47 -20 19 -35 38 -34
42 2 4 -4 5 -13 1 -12 -4 -14 0 -9 18 3 13 9 44 14 69 21 111 53 254 57 262 5
8 14 47 19 83 1 11 3 21 4 23 2 5 20 -7 81 -52z m2140 -166 c19 -6 46 -12 60
-15 14 -3 106 -24 205 -48 l179 -42 8 -39 c5 -22 13 -45 18 -51 5 -7 8 -14 5
-16 -2 -3 16 -18 39 -34 33 -23 43 -36 42 -55 0 -14 -5 -28 -11 -32 -7 -5 -6
-8 1 -8 6 0 9 -17 7 -42 -3 -47 -11 -232 -12 -287 -1 -25 -5 -32 -16 -27 -8 3
-15 2 -15 -2 0 -12 -61 -42 -72 -35 -7 3 -8 1 -4 -5 10 -17 -35 -73 -53 -67
-9 2 -34 7 -56 10 -39 6 -198 31 -260 41 -16 2 -41 6 -55 9 -14 3 -38 7 -55 9
-16 3 -88 15 -160 27 -140 23 -145 23 -220 34 -27 3 -59 9 -70 12 -11 3 -31 7
-45 8 -14 1 -68 10 -120 19 -52 8 -112 18 -134 22 -21 3 -48 8 -60 10 -11 3
-39 7 -61 10 -96 13 -109 18 -116 49 -4 17 -10 40 -14 52 -5 16 -1 24 17 34
12 6 161 95 331 196 169 101 313 181 319 177 7 -4 8 -3 4 4 -4 7 7 18 26 28
31 16 32 16 49 -4 9 -12 19 -18 23 -15 3 3 12 0 21 -7 8 -7 15 -9 15 -5 0 4 7
2 15 -5 9 -8 15 -9 15 -2 0 6 9 9 19 7 29 -5 93 31 116 65 22 33 26 34 75 20z
m-2090 -465 c128 -19 145 -21 290 -45 63 -10 168 -26 233 -36 64 -10 117 -22
117 -27 0 -4 5 -5 10 -2 6 4 28 4 48 0 35 -5 39 -10 48 -49 l10 -43 -235 -164
c-128 -90 -277 -194 -330 -232 -53 -37 -103 -70 -111 -74 -8 -4 -17 -9 -20
-13 -3 -4 -22 -18 -44 -32 l-38 -26 -34 19 c-19 10 -36 19 -39 19 -3 0 -11 0
-19 0 -13 0 -28 59 -41 162 -1 13 -7 50 -14 83 -10 58 -20 118 -26 160 -1 11
-10 64 -19 118 -17 101 -15 117 10 117 8 0 17 7 21 16 3 8 12 13 20 10 8 -3
11 -1 8 4 -8 13 24 60 38 55 7 -2 59 -11 117 -20z m1125 -179 c36 -5 64 -10
255 -41 80 -14 163 -27 185 -30 22 -3 49 -7 60 -9 11 -2 40 -7 65 -11 25 -4
54 -9 65 -11 11 -3 34 -6 50 -8 17 -3 116 -19 220 -36 105 -17 206 -33 225
-36 19 -3 49 -8 65 -11 40 -9 45 -10 48 -12 1 -1 21 -4 44 -6 66 -5 86 -14 80
-36 -3 -10 -1 -22 4 -25 15 -9 10 -34 -8 -41 -10 -4 -20 -10 -23 -13 -4 -6
-704 -472 -1033 -687 -53 -35 -102 -61 -107 -58 -6 4 -9 2 -8 -4 2 -6 -28 -31
-65 -55 -68 -44 -69 -44 -100 -28 -18 10 -33 18 -35 18 -1 1 -5 19 -7 40 -2
22 -5 40 -6 42 -3 4 -13 57 -24 132 -4 24 -52 319 -60 370 -3 14 -7 42 -10 64
-4 21 -9 48 -11 60 -2 11 -7 41 -10 66 -3 25 -7 52 -9 60 -2 8 -7 38 -10 65
-4 28 -11 70 -16 95 -9 38 -8 46 8 57 9 8 23 11 31 8 7 -2 11 -1 8 4 -6 9 18
34 26 26 2 -2 10 11 16 30 10 27 17 33 35 29 12 -3 36 -6 52 -8z m-315 -74 c0
-5 6 -9 13 -10 50 -4 70 -19 64 -48 -2 -14 0 -27 5 -30 5 -3 3 -13 -4 -22 -7
-9 -8 -13 -2 -9 11 7 16 -7 28 -88 2 -16 12 -73 20 -125 9 -52 18 -113 21
-135 4 -22 15 -94 26 -160 26 -155 26 -158 39 -240 6 -38 13 -81 15 -95 16
-105 17 -98 -16 -105 -16 -4 -48 -24 -71 -46 l-41 -38 -27 19 c-16 11 -31 20
-34 20 -3 0 -139 75 -303 166 -164 92 -315 175 -335 186 -21 11 -35 25 -31 31
3 5 1 7 -5 4 -12 -8 -44 2 -37 12 2 4 -2 8 -10 8 -8 0 -30 8 -50 19 -31 16
-35 23 -36 61 -3 64 -3 67 -13 74 -14 10 1 26 62 67 31 21 98 67 147 102 50
35 133 93 185 129 52 36 158 109 235 163 138 96 155 106 155 90z m-525 -867
c61 -34 135 -76 165 -92 224 -122 349 -197 343 -206 -3 -6 -1 -7 5 -3 23 14
104 -43 107 -76 1 -13 3 -28 4 -35 0 -6 12 -25 26 -41 26 -31 26 -40 -4 -107
-5 -11 -42 -105 -81 -210 -40 -104 -78 -203 -85 -220 -7 -16 -17 -43 -22 -60
-9 -28 -13 -30 -64 -32 -45 -2 -56 1 -64 17 -33 66 -81 156 -86 160 -4 4 -86
155 -219 405 -21 39 -68 126 -105 195 -37 69 -82 152 -100 185 -116 215 -125
235 -108 254 17 20 4 27 288 -134z m-314 8 c19 -38 36 -70 39 -73 3 -3 21 -34
39 -70 19 -36 46 -87 61 -115 38 -70 164 -304 218 -405 25 -47 82 -153 126
-235 107 -198 124 -237 108 -243 -23 -7 -45 -66 -46 -122 l-1 -54 -60 -34
c-135 -76 -161 -88 -173 -84 -6 2 -10 8 -6 13 3 5 -2 9 -11 9 -10 0 -13 5 -9
13 4 6 4 9 -1 5 -4 -4 -19 -1 -34 6 -14 7 -34 12 -43 11 -24 -4 -26 1 -38 81
-5 38 -12 80 -15 94 -2 14 -6 41 -9 60 -2 19 -9 64 -15 100 -6 36 -13 83 -16
105 -3 22 -10 65 -15 95 -6 30 -12 73 -15 95 -10 78 -13 101 -24 160 -5 33
-13 80 -16 105 -3 25 -10 70 -15 100 -5 30 -12 78 -15 105 -4 28 -8 57 -10 65
-2 8 -7 33 -10 55 -3 23 -7 50 -9 61 -2 12 -7 45 -11 74 -4 29 -8 61 -10 72
-6 31 1 21 36 -49z"/>
<path d="M1273 6765 c0 -8 4 -12 9 -9 4 3 8 9 8 15 0 5 -4 9 -8 9 -5 0 -9 -7
-9 -15z"/>
<path d="M5916 6808 c3 -5 10 -6 15 -3 13 9 11 12 -6 12 -8 0 -12 -4 -9 -9z"/>
<path d="M3836 6517 c3 -10 9 -15 12 -12 3 3 0 11 -7 18 -10 9 -11 8 -5 -6z"/>
<path d="M5906 6628 c3 -5 10 -6 15 -3 13 9 11 12 -6 12 -8 0 -12 -4 -9 -9z"/>
<path d="M5916 6543 c-6 -14 -5 -15 5 -6 7 7 10 15 7 18 -3 3 -9 -2 -12 -12z"/>
<path d="M5970 6011 c0 -6 4 -13 10 -16 6 -3 7 1 4 9 -7 18 -14 21 -14 7z"/>
<path d="M2736 5292 c-3 -5 1 -9 9 -9 8 0 12 4 9 9 -3 4 -7 8 -9 8 -2 0 -6 -4
-9 -8z"/>
<path d="M4506 5132 c-3 -5 1 -9 9 -9 8 0 12 4 9 9 -3 4 -7 8 -9 8 -2 0 -6 -4
-9 -8z"/>
<path d="M7986 3632 c-3 -5 1 -9 9 -9 8 0 12 4 9 9 -3 4 -7 8 -9 8 -2 0 -6 -4
-9 -8z"/>
<path d="M7106 3772 c-3 -5 1 -9 9 -9 8 0 12 4 9 9 -3 4 -7 8 -9 8 -2 0 -6 -4
-9 -8z"/>
<path d="M4349 8373 c-13 -16 -12 -17 4 -4 9 7 17 15 17 17 0 8 -8 3 -21 -13z"/>
<path d="M316 6177 c3 -10 9 -15 12 -12 3 3 0 11 -7 18 -10 9 -11 8 -5 -6z"/>
<path d="M553 5875 c0 -8 4 -12 9 -9 5 3 6 10 3 15 -9 13 -12 11 -12 -6z"/>
</g>
</svg>
